<svg width="102" height="102" viewBox="0 0 102 102" fill="none" xmlns="http://www.w3.org/2000/svg">
<path d="M42.9636 37.9631C43.6774 37.3378 44.7035 37.3517 45.2914 37.5331C44.907 37.0604 44.0074 36.6714 43.7438 36.6247C43.5421 36.6999 42.9636 37.2942 42.9636 37.9631Z" fill="#0C2742"/>
<path d="M60.5176 36.1046C61.3314 36.2279 61.5887 36.7785 61.6379 36.9467C61.9142 36.7141 62.1696 35.9049 62.0697 35.3739C61.6007 32.864 55.7693 34.5266 52.8319 33.4607C52.7758 34.1923 53.736 35.3643 54.6546 35.7987C53.0843 37.1611 51.6744 39.9073 51.3906 43.2619C51.1067 39.9073 49.6968 37.1611 48.1265 35.7987C49.0451 35.3643 50.006 34.1923 49.9492 33.4607C47.0118 34.5266 41.1804 32.864 40.71 35.3739C40.6114 35.9049 40.8668 36.7141 41.1431 36.9467C41.1924 36.7785 41.4503 36.2279 42.2634 36.1046C46.3721 35.4838 49.8024 41.816 46.7059 44.3765C46.6585 44.4157 46.6851 44.4871 46.7488 44.4871H56.0329C56.096 44.4871 56.1226 44.4157 56.0758 44.3765C52.9786 41.816 56.409 35.4838 60.5176 36.1046Z" fill="#0C2742"/>
<path d="M54.8741 51.3455C55.0322 50.2032 54.2602 49.8744 53.4529 50.0085C53.3524 49.6152 53.2702 49.272 53.1766 48.9318C53.102 48.6568 53.0748 48.1397 53.3935 48.1397C53.5654 48.1397 53.4966 48.6207 53.4801 48.8275C53.4655 49.0096 53.5312 49.1195 53.6787 49.1247C53.7709 49.1284 53.886 49.0109 53.9543 48.9331C54.4164 48.4103 54.5238 47.6011 53.9821 47.2109C53.5294 46.8828 52.3946 47.1269 52.0822 47.5935C52.0355 47.4177 51.8105 47.1275 51.7024 47.0011C51.5973 46.8778 51.5701 46.793 51.7156 46.6849C51.7839 46.6324 51.9906 46.4271 51.9906 46.2146C51.9906 46.0888 51.8932 45.8567 51.5834 45.8567C51.3394 45.8567 51.0683 46.0255 51.0683 46.4029C51.0683 46.4865 51.0885 46.5763 51.1429 46.6729C50.9885 46.6477 50.5695 46.6577 50.3539 46.7109L53.3296 54.8771C54.1818 54.4567 54.8058 53.791 54.8058 53.0766C54.8058 52.4677 53.9093 52.6694 53.4738 53.1448C53.3334 52.3723 53.2088 51.6598 53.0729 50.9492C53.0357 50.7532 53.1349 50.6831 53.2923 50.6235C53.8208 50.4275 54.6491 50.5863 54.6206 51.3494C54.6143 51.5219 54.8564 51.5219 54.8741 51.3455Z" fill="#0C2742"/>
<path d="M63.0701 29.6136C62.9962 29.3772 65.4056 29.3709 65.4056 30.8786C65.4056 31.8895 63.9647 32.3681 63.9647 33.417C63.9647 33.905 64.4902 34.2634 64.6514 34.2634C64.2803 32.5799 65.8146 33.4605 66.2294 33.7755C65.4056 31.5114 67.2598 31.526 67.0771 30.4873C66.9501 29.7622 65.3386 29.9809 64.7549 29.6136C63.7208 28.9624 62.4961 26.4272 61.6894 28.9624C63.1935 30.3589 62.3185 32.4144 60.4086 32.4144C60.4086 32.4144 60.3978 32.7159 60.4156 32.7398C62.6934 32.628 63.4867 30.9545 63.0701 29.6136Z" fill="#0C2742"/>
<path d="M59.01 36.6247C58.745 36.6721 57.8473 37.0604 57.4616 37.5337C58.0502 37.3517 59.0763 37.3378 59.7894 37.9631C59.7894 37.2942 59.2116 36.7006 59.01 36.6247Z" fill="#0C2742"/>
<path d="M50.1954 51.5213C50.0386 51.9892 50.136 52.7946 50.4432 53.0722C49.909 53.0722 49.275 53.1721 48.957 53.3984H48.9564C48.8805 52.9824 49.4589 52.2389 50.1954 51.5213ZM48.0466 53.2081C47.9189 53.4003 47.8569 53.729 47.8569 53.8694C47.8569 54.6786 48.8211 54.8417 49.1896 54.6704C50.2542 55.7009 52.3456 55.4259 53.0454 55.0801L49.3634 44.9775C49.2883 44.7865 49.0183 44.8775 49.0847 45.076L49.7093 46.8126C49.1739 46.9403 48.3133 47.3305 48.3133 47.8476C48.3133 48.5355 49.5311 48.9836 50.2346 48.9299C50.1998 49.0867 50.2403 49.2264 50.3497 49.3547C50.0943 49.3547 49.6125 49.4737 49.4539 49.6438C49.0808 49.296 48.4967 49.1696 48.2192 49.3813C47.9398 49.5951 47.9316 49.956 48.223 50.3645C48.4258 50.6471 48.5017 50.9258 48.2742 51.254C49.1226 51.254 48.8097 50.1507 49.1422 50.1507C49.0986 50.3645 49.1258 50.6116 49.2218 50.8866C49.2864 51.0687 49.2864 51.1983 49.1763 51.3741C48.9026 51.8115 48.4771 52.8168 48.5346 53.7259C48.2565 53.724 48.1149 53.6563 48.2128 53.2764C48.2496 53.1348 48.1623 53.0336 48.0466 53.2081Z" fill="#0C2742"/>
<path d="M37.7535 44.8029C37.8345 44.9868 37.9217 45.1682 38.0159 45.3459C35.3233 46.891 31.5446 46.7279 30.9712 46.6931C30.9308 46.6907 30.8973 46.7229 30.8979 46.7595C30.9428 48.6265 32.7623 49.1391 34.3681 48.9204C35.74 48.7345 37.6581 47.8217 39.0135 46.7899C39.1495 46.9409 39.2942 47.0825 39.4422 47.2191C38.1461 49.344 35.1033 50.2158 34.1114 50.2955C34.064 50.2998 34.0355 50.3492 34.0583 50.389C34.7095 51.5143 36.1774 51.8887 37.7807 51.1199C38.7347 50.6609 39.9201 49.4603 40.7344 48.1131C40.9215 48.2047 41.1162 48.2826 41.3148 48.3514C40.8096 50.8897 38.2865 52.4393 37.8458 52.6928C37.8294 52.7016 37.818 52.7174 37.8149 52.7358C37.8117 52.7541 37.8168 52.7731 37.8288 52.787C38.5792 53.6316 40.3108 53.6487 41.371 52.4273C42.0222 51.6755 42.5223 50.2789 42.803 48.5928C43.5831 48.5928 45.3646 48.928 45.9602 50.5054C45.9861 50.5717 46.0918 50.5547 46.0918 50.4851V46.164C46.0918 46.1197 46.0455 46.0907 46.0013 46.1051C45.022 46.4288 44.0023 46.4686 43.2967 46.3315C41.9059 46.0855 40.8539 44.9509 40.8539 43.5865C40.8539 42.8019 41.2029 42.0945 41.7624 41.5863C41.8818 41.4793 41.8661 41.2985 41.7276 41.2138C41.6669 41.1771 41.6062 41.1405 41.5468 41.1025C36.6889 38.0148 32.2635 30.864 31.7868 30.0788C31.7646 30.042 31.7115 30.0346 31.6787 30.0629C30.186 31.3772 30.0406 33.9524 31.6123 35.9715C32.6516 37.3068 34.834 38.7677 37.0689 40.0359C37.0372 40.2724 37.0158 40.5101 37.0044 40.7485C32.4051 39.761 29.4855 36.588 29.0164 36.0499C28.9855 36.0133 28.9229 36.0209 28.9014 36.0627C28.0555 37.7233 28.7901 39.9544 30.4686 40.8895C31.9423 41.7088 34.2549 42.1912 37.0998 42.5319C37.1302 42.7381 37.1675 42.9435 37.2117 43.1471C32.9418 43.7249 29.6069 42.1653 29.0335 41.8751C28.9905 41.8536 28.9393 41.8802 28.9336 41.925C28.718 43.7022 29.8396 45.1297 31.7558 45.4458C33.6834 45.7644 37.7535 44.8029 37.7535 44.8029Z" fill="#0C2742"/>
<path d="M36.4956 33.7755C36.9097 33.4605 38.4447 32.5799 38.0743 34.2634C38.2348 34.2634 38.7602 33.905 38.7602 33.417C38.7602 32.3681 37.3188 31.8895 37.3188 30.8786C37.3188 29.3709 39.7281 29.3772 39.6541 29.6136C39.2381 30.9545 40.0322 32.6287 42.31 32.7398C42.3265 32.7159 42.3157 32.4144 42.3157 32.4144C40.4071 32.4144 39.5321 30.3589 41.0355 28.9624C40.2282 26.4272 39.0042 28.9624 37.9693 29.6136C37.3858 29.9815 35.7743 29.7622 35.6478 30.4873C35.4658 31.526 37.3188 31.5114 36.4956 33.7755Z" fill="#0C2742"/>
<path d="M57.4616 29.2125C57.4616 29.7891 57.8283 30.2063 58.0204 30.3303C58.2001 30.2063 58.5793 29.7891 58.5793 29.2125C58.5793 29.0671 58.3809 28.7465 58.0204 28.7465C57.6595 28.7465 57.4616 29.0671 57.4616 29.2125Z" fill="#0C2742"/>
<path d="M50.3754 22.9223L51.0021 22.854L50.9362 23.5949H51.7872L51.7215 22.854L52.348 22.9223V22.115L51.7215 22.1833L51.7872 21.474H50.9362L51.0021 22.1833L50.3754 22.115V22.9223Z" fill="#0C2742"/>
<path d="M50.5641 24.9152C50.5641 25.7338 51.0851 26.3261 51.3576 26.5025C51.6124 26.3261 52.151 25.7338 52.151 24.9152C52.151 24.709 51.8697 24.2539 51.3576 24.2539C50.8454 24.2539 50.5641 24.709 50.5641 24.9152Z" fill="#0C2742"/>
<path d="M46.1676 32.7355C48.6459 32.7355 49.7599 31.215 50.0968 29.8963C50.6544 29.8963 51.15 29.8963 52.6205 29.8963C52.9574 31.215 54.0714 32.7355 56.5504 32.7355H59.4971C59.9111 32.3214 60.3044 31.6196 60.3044 30.9035C60.3044 29.8723 59.3168 29.8609 59.0431 29.8615C58.8521 30.6555 58.3268 31.0236 58.0316 31.1676C57.7179 31.0318 57.1889 30.6834 56.9985 29.8589C56.7153 29.8634 55.7416 29.8761 55.7416 30.9035C55.7416 31.1278 55.7923 31.3896 55.9041 31.6899C55.9637 31.8491 56.1058 32.0838 56.2405 32.2892C55.1949 32.1456 53.8602 31.4301 53.5676 29.8963C53.5676 29.8963 54.3401 28.6692 54.5343 28.1723C55.2309 26.3862 54.0993 25.6276 52.7982 25.6276C52.6168 26.4741 52.0205 27.0849 51.3574 27.3814C50.6948 27.0849 50.1005 26.4741 49.9191 25.6276C48.618 25.6276 47.4871 26.3862 48.183 28.1723C48.3772 28.6692 49.1504 29.8963 49.1504 29.8963C48.8569 31.4301 47.5224 32.1456 46.4767 32.2892C46.6113 32.0838 46.7536 31.8491 46.813 31.6899C46.925 31.3896 46.9755 31.1278 46.9755 30.9035C46.9755 29.8761 46.002 29.8634 45.7188 29.8589C45.5284 30.6834 44.9992 31.0318 44.6863 31.1676C44.3911 31.0236 43.8657 30.6555 43.6748 29.8615C43.4004 29.8609 42.4129 29.8723 42.4129 30.9035C42.4129 31.6196 42.8061 32.3214 43.2202 32.7355H46.1676Z" fill="#0C2742"/>
<path d="M58.7804 27.0756L58.2936 27.1286L58.3447 26.5458H57.7012L57.753 27.1286L57.2662 27.0756V27.687L57.753 27.6338L57.7012 28.2167H58.3447L58.2936 27.6338L58.7804 27.687V27.0756Z" fill="#0C2742"/>
<path d="M45.0167 26.5458H44.3738L44.4243 27.1286L43.9382 27.0756V27.687L44.4243 27.6338L44.3738 28.2167H45.0167L44.9656 27.6338L45.4523 27.687V27.0756L44.9656 27.1286L45.0167 26.5458Z" fill="#0C2742"/>
<path d="M44.1364 29.2125C44.1364 29.7891 44.5158 30.2063 44.6953 30.3303C44.8875 30.2063 45.2549 29.7891 45.2549 29.2125C45.2549 29.0671 45.0563 28.7465 44.6953 28.7465C44.335 28.7465 44.1364 29.0671 44.1364 29.2125Z" fill="#0C2742"/>
<path d="M52.5628 67.6219C52.1236 68.0633 51.5021 68.3495 51.3367 68.4085C51.2094 68.3517 50.637 68.0828 50.2059 67.6673C50.7503 67.62 51.3246 67.4938 51.8993 67.3107L52.5628 67.6219Z" fill="#0C2742"/>
<path d="M56.0299 64.9489C56.1429 65.434 55.9037 65.8923 55.5301 66.2483L54.792 65.9029C55.2375 65.5896 55.6293 65.2452 55.9409 64.8711C55.9589 64.8494 55.9755 64.8266 55.9931 64.8045C56.0058 64.8525 56.0185 64.9005 56.0299 64.9489Z" fill="#0C2742"/>
<path d="M59.0507 63.9513C58.9265 64.559 58.2561 65.1937 57.4774 65.3472C57.4599 65.3509 57.4414 65.3473 57.427 65.3378C57.4119 65.3283 57.4008 65.3126 57.3978 65.2955C57.3255 64.9128 57.2048 64.5442 57.048 64.1915C57.6834 64.2224 58.3652 64.1391 59.0507 63.9513Z" fill="#0C2742"/>
<path d="M44.3739 63.7876C44.1444 63.8498 43.9144 63.9238 43.6856 64.0091C43.6386 63.8289 43.6376 63.6498 43.6949 63.4845C43.6964 63.4802 43.6978 63.4757 43.6993 63.4714L44.3739 63.7876Z" fill="#0C2742"/>
<path d="M56.6323 51.9138C58.9139 51.7984 60.8382 53.7251 58.9387 57.0189C58.4684 57.1379 57.9951 57.3068 57.5328 57.5224C57.3774 57.5949 57.2252 57.6718 57.0766 57.7527C57.0602 56.5731 55.8396 55.9083 54.5835 56.7096C53.9159 57.1351 53.2373 57.9736 52.7252 59.3726C53.3311 59.5194 53.9745 59.7282 54.6109 59.9863C54.5902 60.0204 54.5691 60.0543 54.5493 60.089C54.2555 60.0158 53.9543 59.9842 53.6606 59.9832C52.6673 59.9796 51.5541 60.3109 50.4754 60.814C49.5712 61.2358 48.7056 61.7722 48.0352 62.3854C48.718 61.5835 49.5689 60.9387 50.4337 60.5296C50.3565 60.3248 50.3819 60.3908 50.3055 60.1854C49.4292 60.3834 48.0898 61.1368 47.0096 62.2585L45.3722 61.4917C46.6679 60.5235 48.4546 59.7463 49.9987 59.372C49.488 57.9737 48.8098 57.1352 48.1416 56.7096C46.611 55.7335 45.1305 56.9321 45.819 58.5873C45.9106 58.8091 45.7858 59.0346 45.519 59.0347C44.212 59.0347 42.9491 59.0792 41.7607 59.8008L38.611 58.3259C38.7423 58.237 38.8682 58.1716 38.9552 58.1392C39.1537 58.0652 39.3645 58.0271 39.5763 58.0271C40.075 58.0272 40.5205 58.2294 40.8297 58.5493C42.0018 58.6928 44.5014 58.1248 44.2675 57.7707C41.6012 54.0219 43.6419 51.7899 46.0922 51.9138V54.4318C46.0923 55.2404 46.7963 55.895 47.6661 55.895H49.3583C50.5673 55.895 51.3562 57.1071 51.3616 57.1154C51.3616 57.1154 52.1519 55.8952 53.3656 55.895H55.0578C55.9269 55.8949 56.6322 55.2403 56.6323 54.4318V51.9138Z" fill="#0C2742"/>
<path d="M62.9423 60.3697C63.0814 60.5542 63.2374 60.7413 63.4109 60.9229L63.2435 60.7399C63.1355 60.6171 63.035 60.4926 62.9423 60.3697Z" fill="#0C2742"/>
<path d="M64.6948 58.9781C64.8154 59.2381 64.8637 59.5335 64.8112 59.845C64.8037 59.8889 64.794 59.9324 64.7825 59.9751C64.5328 59.746 64.3185 59.4876 64.1428 59.2357L64.6948 58.9781Z" fill="#0C2742"/>
<path fill-rule="evenodd" clip-rule="evenodd" d="M64.1398 52.2056C64.1628 52.1957 64.1943 52.1829 64.233 52.1676C64.24 52.1648 64.2477 52.1625 64.2554 52.1596C64.2582 52.1585 64.2611 52.1573 64.2641 52.1562C64.3362 52.1276 64.4383 52.0901 64.561 52.0529C64.5627 52.0523 64.5645 52.0515 64.5662 52.051C64.9343 51.9149 65.0033 51.8777 65.3312 51.824C65.9059 51.7299 66.3901 51.7287 66.8097 52.0568C67.2408 52.394 67.5078 52.9099 67.6019 53.5771C67.6554 53.958 67.3901 54.311 67.0092 54.3648C66.6282 54.4184 66.2755 54.1523 66.2218 53.7714C66.1659 53.3752 65.9566 53.1592 65.9514 53.154C65.9514 53.154 65.6539 52.8764 65.4785 52.8342C65.3422 52.8015 65.2164 52.8007 65.102 52.8151C64.9989 52.8352 64.901 52.86 64.8139 52.8864C64.7178 52.9156 64.6387 52.9446 64.5848 52.966C64.5579 52.9766 64.5372 52.9856 64.5243 52.9911C64.5182 52.9938 64.5136 52.9956 64.5111 52.9967L64.5096 52.9974L64.3661 53.0667C62.9128 53.7952 62.4286 54.8457 62.3385 55.8372C62.253 56.7796 62.5247 57.6977 62.7616 58.267L71.2692 54.2991C71.3092 54.0983 71.2332 53.8975 71.178 53.8019C70.8638 53.9197 70.5771 53.9713 70.3854 53.9345C70.0736 53.8741 69.9066 53.5784 69.9762 53.3679C69.9773 53.3644 69.9801 53.3615 69.9835 53.3602C69.9869 53.359 69.991 53.3589 69.9941 53.3607C70.0805 53.4109 70.5918 53.6885 71.0732 53.5251C71.0653 53.4845 71.0595 53.4437 71.0569 53.403C70.7476 53.3968 70.427 53.3126 70.2553 53.1952C69.967 52.9981 69.8867 52.7121 70.0141 52.4908C70.0186 52.4829 70.0298 52.4829 70.0352 52.4907C70.1464 52.6517 70.5934 53.0837 71.082 53.0953C71.0906 53.0568 71.1007 53.018 71.1131 52.9801C70.8044 52.8508 70.4605 52.6144 70.2939 52.3991C70.0992 52.1474 70.0079 51.7877 70.3212 51.5968C70.3276 51.593 70.3361 51.5954 70.3395 51.6022C70.3898 51.7027 70.7328 52.3621 71.2601 52.6684C71.2812 52.635 71.3038 52.6022 71.3272 52.5704C71.3196 52.5623 70.7629 51.9704 70.6286 51.6136C70.4941 51.2565 70.627 50.9254 70.9506 50.7878C70.9586 50.7844 70.9682 50.7904 70.9687 50.7993C70.9756 50.9244 71.0373 51.6457 71.5554 52.316C71.5858 52.2884 71.6171 52.262 71.6493 52.2364C71.4278 51.7193 71.2826 51.2785 71.2772 50.9472C71.2713 50.5696 71.5788 50.2253 71.9446 50.2065C71.9537 50.2061 71.9611 50.2157 71.9584 50.2244C71.913 50.3559 71.6593 51.1649 71.9432 52.0448C71.9847 52.0233 72.0272 52.0038 72.0704 51.986C72.0666 51.4814 72.1008 50.9668 72.2258 50.6588C72.4151 50.1932 72.8676 49.965 73.2379 50.0903C73.2416 50.0916 73.2448 50.0941 73.2463 50.0979C73.2479 50.1016 73.2475 50.1061 73.2457 50.1097C73.1589 50.2678 72.3771 51.7229 72.3291 52.8527C72.3284 52.8664 72.328 52.8802 72.3277 52.894C72.327 52.926 72.2976 52.9462 72.2675 52.9366C72.1262 52.8913 71.9717 52.9015 71.8383 52.9785C71.6063 53.1125 71.5167 53.4029 71.6114 53.6635C71.6497 53.7748 71.7308 53.9107 71.8441 54.031L72.382 53.7801C72.3433 53.3693 72.5613 52.9603 72.9567 52.7759C73.4593 52.5415 74.0567 52.7589 74.2912 53.2615C74.5256 53.7641 74.3084 54.362 73.8058 54.5964C73.418 54.7773 72.9743 54.6883 72.6838 54.4077L72.0901 54.6847C72.1059 54.8666 72.1637 55.0344 72.231 55.1441C72.372 55.3828 72.6534 55.4983 72.9043 55.4044C73.0486 55.3504 73.1546 55.237 73.2094 55.099C73.2211 55.0698 73.2556 55.0605 73.2807 55.0803C73.2914 55.0888 73.3027 55.0973 73.3137 55.1055C74.2167 55.7864 75.837 56.1076 76.0138 56.141C76.0177 56.1419 76.0211 56.1442 76.023 56.1476C76.025 56.1513 76.0256 56.1555 76.0242 56.1592C75.8856 56.5248 75.4219 56.7287 74.9421 56.579C74.6248 56.4798 74.2055 56.1794 73.8182 55.8557C73.777 55.8777 73.7349 55.898 73.6919 55.9164C74.1906 56.6946 74.9758 57.0131 75.1068 57.062C75.1153 57.0653 75.1183 57.0769 75.1121 57.0837C74.8651 57.3542 74.4043 57.3728 74.1165 57.1284C73.8641 56.9138 73.6159 56.5218 73.3573 56.0221C73.3172 56.0307 73.2768 56.0375 73.2363 56.0434C73.4245 56.8692 73.9417 57.3754 74.0342 57.4603C74.0408 57.4665 74.0393 57.4781 74.0316 57.4822C73.7198 57.6443 73.3798 57.5365 73.1896 57.2059C72.9981 56.8733 72.8943 56.058 72.8943 56.058C72.855 56.0558 72.8158 56.0523 72.7766 56.0474C72.6779 56.6493 72.9688 57.3336 73.0144 57.4362C73.0174 57.4432 73.014 57.4518 73.007 57.4542C72.6606 57.5746 72.441 57.2749 72.3705 56.9645C72.3102 56.6991 72.3456 56.2838 72.442 55.9633C72.405 55.9488 72.3688 55.9322 72.3337 55.9143C72.0323 56.299 72.0815 56.9183 72.1352 57.1064C72.1377 57.1155 72.1306 57.1244 72.1218 57.123C71.8699 57.0808 71.6996 56.8364 71.7306 56.4885C71.7492 56.2814 71.8886 55.9804 72.0803 55.7378C72.0506 55.7099 72.0229 55.6797 71.9965 55.6477C71.5648 55.9153 71.4535 56.4853 71.4371 56.5848C71.4366 56.5884 71.4341 56.5919 71.431 56.5937C71.4279 56.5955 71.424 56.5962 71.4206 56.5949C71.2137 56.5151 71.0913 56.1977 71.2428 55.9185C71.3363 55.7471 71.5585 55.5585 71.8493 55.3907C71.8065 55.2765 71.6806 55.0605 71.464 54.9767L63.0535 58.8993C63.3224 59.4455 63.8673 60.3118 64.6933 60.886C65.5109 61.4543 66.6268 61.7584 68.1189 61.1131L68.2643 61.0477L68.2658 61.047C68.2683 61.0458 68.2726 61.0435 68.2785 61.0405C68.2911 61.0342 68.3113 61.0241 68.3366 61.0104C68.3876 60.9828 68.4607 60.9408 68.5448 60.886C68.6005 60.8496 68.6586 60.8073 68.7181 60.7621C68.8253 60.6748 68.9319 60.5632 69.0101 60.4064C69.0906 60.2448 69.0691 59.8385 69.0691 59.8385C69.0687 59.834 69.0386 59.533 68.7696 59.2341C68.5124 58.9481 68.5354 58.5073 68.8212 58.25C69.1072 57.9926 69.5482 58.0162 69.8056 58.3021C70.2563 58.803 70.48 59.3391 70.4612 59.886C70.4429 60.4183 70.1306 60.7882 69.6891 61.1679C69.4488 61.3747 69.3714 61.4104 69.0685 61.5823C69.052 61.5935 69.0363 61.6053 69.0204 61.6157C68.9132 61.6856 68.8192 61.7396 68.751 61.7765C68.7168 61.795 68.6886 61.8092 68.6684 61.8193C68.6585 61.8242 68.6503 61.8282 68.6442 61.8311L68.6328 61.8365C68.6213 61.8418 68.6091 61.847 68.5977 61.8523L68.5892 61.8562C66.7474 62.6993 65.2718 62.349 64.196 61.6013C63.6079 61.1924 63.1476 60.6718 62.8067 60.1867C62.7091 60.4164 62.5823 60.6412 62.432 60.8539C61.9016 61.6048 61.042 62.3021 59.9889 62.7933C58.9358 63.2843 57.8495 63.4946 56.9334 63.4184C56.5817 63.3891 56.2404 63.3144 55.9333 63.1893C55.8681 63.6125 55.654 64.0179 55.3507 64.3822C54.8156 65.0248 53.958 65.606 52.9313 66.0849C51.9034 66.5643 50.8336 66.8815 49.9279 66.9205C49.407 66.9429 48.8847 66.871 48.465 66.6421C48.3645 66.97 48.1986 67.2919 47.9875 67.5908C47.4571 68.3416 46.5975 69.039 45.5444 69.5301C44.504 70.0154 43.4444 70.2715 42.5503 70.2425C42.1215 70.2286 41.7059 70.1455 41.3495 69.9747C41.2431 70.3495 41.0259 70.7066 40.7301 71.0144C40.1138 71.6556 39.1273 72.1424 37.9004 72.3045L37.7863 71.4408C38.859 71.299 39.6494 70.8821 40.1023 70.4109C40.4437 70.0557 40.574 69.7009 40.5477 69.396L35.4267 71.7844L35.1324 71.1533L40.207 68.7865C39.9872 68.6203 39.6635 68.5271 39.2371 68.556C38.5851 68.6001 37.7576 68.9378 36.9597 69.6685L36.3713 69.0259C37.284 68.1902 38.291 67.7472 39.1782 67.6871C39.6041 67.6583 40.0173 67.721 40.3726 67.8802C40.4709 67.4976 40.6746 67.126 40.9394 66.7887C41.4918 66.085 42.369 65.4378 43.4094 64.9526C44.4625 64.4614 45.5493 64.251 46.4654 64.3272C46.8299 64.3576 47.1832 64.4369 47.4988 64.5705C47.5933 64.1021 47.8742 63.6559 48.2259 63.2714C48.8379 62.6026 49.7685 61.9868 50.7963 61.5074C51.8231 61.0285 52.8195 60.745 53.6557 60.748C54.1296 60.7498 54.5778 60.846 54.9438 61.0679C55.0454 60.7523 55.2078 60.443 55.4113 60.1548C55.9417 59.404 56.8009 58.7069 57.8539 58.2157C58.9071 57.7245 59.9937 57.5141 60.9099 57.5903C61.1693 57.6119 61.423 57.6588 61.6616 57.7315C61.5091 57.1587 61.4062 56.4717 61.471 55.7585C61.5895 54.4537 62.2694 53.0982 64.0991 52.2289L64.0972 52.2249L64.1111 52.2184C64.1184 52.2151 64.1282 52.2106 64.1398 52.2056ZM41.4308 68.9841C41.6531 69.2072 42.0275 69.354 42.5784 69.3719C43.2999 69.3953 44.2225 69.186 45.1764 68.7411C46.1175 68.3022 46.848 67.6946 47.2761 67.0887C47.5449 66.7081 47.6753 66.3595 47.696 66.062L41.4308 68.9841ZM55.9495 62.2126C56.1907 62.3879 56.5413 62.5123 57.0055 62.5509C57.7448 62.6124 58.6798 62.4431 59.6209 62.0043C60.562 61.5653 61.293 60.9576 61.7211 60.3516C61.9898 59.971 62.1203 59.6224 62.141 59.3249L55.9495 62.2126ZM48.614 65.6339C48.7953 65.9065 49.1907 66.0803 49.8901 66.0502C50.6425 66.0179 51.5967 65.7461 52.563 65.2954C53.5306 64.8442 54.2608 64.3298 54.6814 63.8247C55.0603 63.3696 55.1493 62.9798 55.0335 62.6398L48.614 65.6339ZM43.7774 65.7416C42.8235 66.1865 42.0703 66.7589 41.6245 67.3267C41.3276 67.7049 41.1929 68.0434 41.1818 68.3318L47.3379 65.4607C47.1043 65.3239 46.7901 65.228 46.3928 65.1949C45.6535 65.1334 44.7185 65.3027 43.7774 65.7416ZM51.1645 62.2968C50.1982 62.7476 49.3768 63.304 48.8684 63.8596C48.4508 64.3161 48.3081 64.6931 48.344 64.9914L54.7218 62.0168C54.5224 61.7667 54.1818 61.6211 53.6527 61.6191C52.9954 61.6167 52.132 61.8456 51.1645 62.2968ZM58.2219 59.0047C57.2809 59.4437 56.5502 60.0512 56.1223 60.6571C55.8922 60.9828 55.7638 61.2851 55.7185 61.552L61.7829 58.7235C61.5493 58.5868 61.2351 58.4909 60.8378 58.4578C60.0985 58.3963 59.1631 58.5657 58.2219 59.0047Z" fill="#0C2742"/>
<path d="M62.4427 70.2003L63.4362 68.0785L64.6745 68.6583L65.1194 67.7079L67.2427 68.7021L65.8043 71.7739L67.6063 72.6177L67.0926 73.7141L52.7513 66.9986C52.9205 66.9288 53.0888 66.8557 53.2546 66.7784L53.4557 66.6824C53.6925 66.5667 53.923 66.4438 54.1451 66.3148L62.4427 70.2003Z" fill="#0C2742"/>
<path d="M48.6396 64.1389C48.6469 64.1288 48.6541 64.1185 48.6617 64.1084L48.7246 64.0275C48.6943 64.0652 48.666 64.1023 48.6396 64.1389Z" fill="#0C2742"/>
<path fill-rule="evenodd" clip-rule="evenodd" d="M27.8909 54.6581C28.8123 52.6903 31.2488 51.886 33.3327 52.8617C35.2288 53.7495 36.1793 55.805 35.6414 57.6506L47.3506 63.1333C47.2346 63.29 47.1264 63.4577 47.0333 63.6355C46.8661 63.6026 46.6971 63.5793 46.5288 63.5653C46.184 63.5367 45.8239 63.5432 45.4556 63.5826L35.1193 58.743C34.0348 60.3015 31.8726 60.8674 29.9958 59.9886C27.9118 59.0128 26.9694 56.6261 27.8909 54.6581ZM32.8632 53.8651C31.3659 53.164 29.6151 53.7417 28.9531 55.1556C28.291 56.5695 28.9684 58.2842 30.4657 58.9852C31.9629 59.6863 33.7138 59.1086 34.3758 57.6947C35.0379 56.2808 34.3604 54.5662 32.8632 53.8651Z" fill="#0C2742"/>
<path d="M63.8965 53.335L63.8958 53.3353C63.9401 53.3067 63.9856 53.2784 64.0322 53.2504C63.9858 53.2782 63.9406 53.3065 63.8965 53.335Z" fill="#0C2742"/>
<path d="M64.3661 53.0673C64.3207 53.09 64.2764 53.1131 64.233 53.1364C64.1717 53.1694 64.1123 53.2031 64.0546 53.2372C64.1532 53.1788 64.2567 53.1221 64.3661 53.0673Z" fill="#0C2742"/>
<path d="M70.9845 30.046C71.0054 30.0427 71.0255 30.0493 71.0408 30.0625C72.5359 31.3764 72.6809 33.9519 71.1099 35.9717C70.07 37.3076 67.8872 38.7677 65.6518 40.036C65.6834 40.2724 65.7056 40.5102 65.7169 40.7485C70.3198 39.7609 73.2413 36.5825 73.706 36.0475C73.7371 36.0127 73.7979 36.0204 73.8192 36.0622C74.6678 37.7229 73.9331 39.9545 72.2533 40.8897C70.7789 41.7096 68.4662 42.192 65.622 42.5321C65.5911 42.7389 65.5541 42.9437 65.5099 43.1479C69.7841 43.7256 73.1207 42.163 73.6898 41.8747C73.7309 41.8538 73.7827 41.8798 73.7884 41.9239C74.0052 43.7011 72.8831 45.1297 70.9665 45.4459C69.044 45.7636 64.9919 44.8088 64.9679 44.8032C64.887 44.987 64.8004 45.1679 64.7069 45.3462C67.4 46.8919 71.1806 46.7275 71.7515 46.6934C71.7906 46.691 71.8241 46.721 71.8235 46.7588C71.7793 48.6265 69.9596 49.1389 68.3538 48.9207C66.9807 48.7342 65.064 47.8217 63.7079 46.7893C63.5726 46.9405 63.4273 47.0828 63.2792 47.2188C64.5747 49.3442 67.6182 50.2158 68.6101 50.2954C68.6581 50.2998 68.6865 50.3494 68.663 50.3892C68.3547 50.9221 67.863 51.2857 67.2607 51.44L67.2159 51.4062C66.546 50.9213 65.8055 50.9718 65.2073 51.0698C65.1051 51.0865 65.0197 51.103 64.9437 51.1205L64.851 51.0742C63.9129 50.5857 62.7756 49.4182 61.9869 48.1126C61.8005 48.2048 61.6065 48.2828 61.4067 48.3516C61.6945 49.7981 62.638 50.9229 63.4778 51.6702L63.0811 51.8555L63.1027 51.9022C62.6166 52.2041 62.2169 52.5449 61.892 52.9114C61.6995 52.7794 61.5168 52.6188 61.3508 52.4276C60.7004 51.6758 60.199 50.2792 59.9183 48.5931C59.1387 48.5932 57.3568 48.9282 56.7612 50.5054C56.7366 50.5717 56.6303 50.5548 56.6303 50.4852V46.1643C56.6303 46.12 56.6758 46.0908 56.72 46.1051C57.6993 46.4288 58.7199 46.4687 59.426 46.3316C60.8162 46.0855 61.8674 44.9509 61.8674 43.5866C61.8673 42.802 61.5192 42.0952 60.9592 41.5875C60.8403 41.4794 60.8553 41.2986 60.9949 41.214C61.0549 41.1779 61.115 41.1406 61.1739 41.1026C66.035 38.0136 70.4623 30.8577 70.9352 30.0776C70.9465 30.0606 70.9643 30.0484 70.9845 30.046Z" fill="#0C2742"/>
<path d="M64.1111 52.2184L64.0973 52.2253L64.1109 52.2187L64.1111 52.2184Z" fill="#0C2742"/>
<path d="M84.2594 79.6867L81.7953 78.4065L82.9373 77.2487L84.2594 79.6867Z" fill="#0C2742"/>
<path d="M20.7527 75.8111C20.9309 75.9727 21.0449 76.1334 21.0943 76.2917C21.1417 76.4476 21.1421 76.5992 21.0954 76.7454C21.0445 76.8913 20.9656 77.0306 20.8586 77.1608C20.7499 77.2889 20.6294 77.406 20.499 77.5119C20.3687 77.6178 20.227 77.7124 20.0751 77.7962C19.9194 77.8794 19.7639 77.9325 19.6085 77.9543C19.4491 77.9756 19.2938 77.9499 19.1442 77.8767C18.9928 77.8012 18.8572 77.6585 18.7375 77.4491L20.7527 75.8111Z" fill="#0C2742"/>
<path d="M19.1956 74.4073C19.3463 74.3931 19.4949 74.4252 19.6402 74.5018C19.7831 74.5804 19.9159 74.7233 20.0376 74.9305L18.0224 76.5681C17.8419 76.4081 17.7337 76.2445 17.6992 76.0777C17.6628 75.9131 17.674 75.7519 17.7338 75.5953C17.7899 75.4379 17.8751 75.2903 17.9886 75.1548C18.1021 75.0194 18.2203 74.9025 18.3419 74.8037C18.4636 74.7048 18.5984 74.6168 18.7456 74.5404C18.8907 74.4659 19.041 74.4212 19.1956 74.4073Z" fill="#0C2742"/>
<path d="M87.7898 71.7608L87.0107 72.8775C86.9772 72.9255 86.9378 72.9765 86.8934 73.0304C86.8511 73.0862 86.8072 73.1351 86.7621 73.1753C86.5879 73.337 86.4114 73.4018 86.2327 73.3694C86.0547 73.3408 85.8976 73.2792 85.7621 73.1848C85.629 73.092 85.517 72.9658 85.4264 72.8072C85.3342 72.6507 85.3337 72.4616 85.4253 72.2421C85.4497 72.1877 85.4793 72.1293 85.5146 72.069C85.5499 72.0087 85.5849 71.9544 85.6183 71.9064L86.3974 70.7898L87.7898 71.7608Z" fill="#0C2742"/>
<path d="M14.1858 63.2467C14.0061 63.1853 13.8403 63.1499 13.6898 63.1408C13.5384 63.1291 13.3692 63.1389 13.1824 63.1713C12.9928 63.2046 12.754 63.2543 12.4662 63.3202C12.1782 63.3862 11.9183 63.4492 11.6871 63.5081C11.4558 63.567 11.2277 63.628 11.0036 63.6905C10.7786 63.7503 10.5315 63.8146 10.2624 63.8831L9.69393 62.1407L13.4107 60.9087L14.1858 63.2467Z" fill="#0C2742"/>
<path d="M8.56776 46.8953C8.67692 46.8964 8.79313 46.9138 8.91594 46.9486C9.03597 46.9806 9.14619 47.0398 9.24611 47.1247C9.34305 47.2096 9.4123 47.3295 9.45274 47.4835C9.4689 47.5424 9.47946 47.6074 9.48436 47.6773C9.48923 47.7471 9.49118 47.8117 9.49061 47.8703L9.47701 49.2322L7.61144 49.2134L7.62505 47.8516C7.62566 47.793 7.62942 47.7282 7.63571 47.6586C7.64203 47.5887 7.65401 47.5241 7.67137 47.4655C7.71497 47.3121 7.78782 47.194 7.8894 47.1111C7.98823 47.0282 8.09942 46.9708 8.22288 46.9412C8.34348 46.9089 8.45867 46.8942 8.56776 46.8953Z" fill="#0C2742"/>
<path d="M10.6804 42.699L8.20413 41.4545L10.9561 41.0978L10.6804 42.699Z" fill="#0C2742"/>
<path d="M91.9952 29.732C92.1216 29.7136 92.2472 29.7236 92.3706 29.7614C92.4963 29.7982 92.6093 29.8785 92.7092 30.0026C92.748 30.0497 92.7843 30.1042 92.8173 30.1659C92.8503 30.2277 92.8788 30.2864 92.9022 30.3402L93.4464 31.5888L91.7364 32.3333L91.1922 31.0854C91.1688 31.0317 91.1458 30.9714 91.1231 30.9053C91.1003 30.8389 91.0837 30.775 91.0757 30.7144C91.0527 30.5567 91.0699 30.4194 91.126 30.3034C91.1849 30.1863 91.263 30.0877 91.3599 30.0089C91.4603 29.9316 91.561 29.8709 91.661 29.8273C91.761 29.7837 91.8727 29.7519 91.9952 29.732Z" fill="#0C2742"/>
<path d="M16.1035 26.6212C16.2304 26.5984 16.3551 26.6042 16.4767 26.6399C16.5973 26.6719 16.7055 26.7156 16.7995 26.7708C16.8936 26.8261 16.9861 26.8998 17.0753 26.991C17.1633 27.0784 17.2291 27.1845 17.2735 27.3076C17.3154 27.4297 17.3163 27.5691 17.2746 27.7231C17.2593 27.7821 17.236 27.8436 17.2054 27.9065C17.1749 27.9696 17.144 28.0269 17.1143 28.0775L16.4252 29.2508L14.816 28.3058L15.5057 27.1315C15.5353 27.0811 15.5709 27.0272 15.6109 26.9701C15.651 26.9128 15.6936 26.8621 15.7377 26.8201C15.8518 26.7088 15.9742 26.6426 16.1035 26.6212Z" fill="#0C2742"/>
<path d="M87.5004 25.9491L86.6059 24.5931L89.2641 23.8066L87.5004 25.9491Z" fill="#0C2742"/>
<path d="M83.0788 19.8119C83.1994 19.9406 83.2757 20.0714 83.3071 20.2031C83.3424 20.3348 83.3393 20.461 83.2979 20.5803C83.2565 20.6998 83.1829 20.8088 83.0788 20.9065C82.9604 21.0174 82.8328 21.0881 82.6972 21.1193C82.5655 21.1507 82.434 21.1454 82.3027 21.1035C82.1734 21.0597 82.0557 20.9819 81.9504 20.8697L80.9912 19.8454L82.1192 18.7887L83.0788 19.8119Z" fill="#0C2742"/>
<path d="M84.6925 18.0809C84.8417 18.2401 84.9102 18.4049 84.8969 18.5747C84.8835 18.7446 84.8082 18.8928 84.6734 19.0192C84.5652 19.1206 84.4561 19.1826 84.3465 19.2049C84.2391 19.2251 84.1344 19.2142 84.0329 19.1714C83.9313 19.1285 83.8357 19.0599 83.7476 18.9659L82.8972 18.0589L83.8421 17.1728L84.6925 18.0809Z" fill="#0C2742"/>
<path d="M26.1398 15.7991L24.8776 16.8227L23.832 14.2557L26.1398 15.7991Z" fill="#0C2742"/>
<path d="M77.6013 12.1074C77.9077 12.1221 78.2138 12.2456 78.5186 12.4787C78.8233 12.7118 79.0271 12.974 79.13 13.263C79.2327 13.5519 79.2428 13.858 79.1605 14.1803C79.0804 14.5044 78.9148 14.835 78.6646 15.1723C78.4143 15.5096 78.1442 15.7666 77.8538 15.9418C77.5658 16.1186 77.2679 16.1998 76.9615 16.1852C76.655 16.1705 76.349 16.0459 76.0442 15.8128C75.7396 15.5797 75.536 15.3185 75.4331 15.0296C75.3303 14.7406 75.3181 14.4331 75.3982 14.109C75.4806 13.7866 75.6473 13.4564 75.8975 13.1192C76.1478 12.7819 76.4178 12.5243 76.706 12.3475C76.9962 12.1725 77.2949 12.0927 77.6013 12.1074Z" fill="#0C2742"/>
<path d="M32.0443 10.9646L30.8571 11.6312C30.8059 11.6599 30.7479 11.6891 30.6843 11.7184C30.6206 11.7476 30.559 11.7693 30.4997 11.7834C30.3448 11.8222 30.2065 11.8193 30.0853 11.775C29.9628 11.7282 29.8569 11.6602 29.7688 11.5717C29.6819 11.4795 29.6114 11.3858 29.5581 11.2908C29.5048 11.1957 29.4622 11.0874 29.4301 10.9676C29.3992 10.8438 29.3953 10.7176 29.4206 10.5911C29.4446 10.4622 29.5147 10.3415 29.6283 10.2297C29.6713 10.1864 29.7224 10.1448 29.7805 10.1058C29.8385 10.0669 29.8931 10.0326 29.9441 10.0039L31.1321 9.33733L32.0443 10.9646Z" fill="#0C2742"/>
<path d="M64.1416 5.786C64.4355 5.69844 64.7656 5.7141 65.1302 5.83306C65.4949 5.95211 65.7742 6.13127 65.9671 6.36986C66.1597 6.60849 66.271 6.89401 66.3002 7.22543C66.3319 7.55784 66.2853 7.92541 66.1608 8.32661C66.0363 8.72775 65.865 9.05903 65.649 9.32042C65.4357 9.58255 65.1819 9.75819 64.8879 9.84582C64.5941 9.93325 64.2649 9.91729 63.9004 9.79839C63.5356 9.67933 63.2564 9.50023 63.0636 9.26159C62.871 9.023 62.7589 8.73709 62.7271 8.40492C62.6982 8.07342 62.745 7.70629 62.8694 7.30522C62.9939 6.90407 63.1639 6.57251 63.3772 6.3103C63.5931 6.04906 63.8477 5.87367 64.1416 5.786Z" fill="#0C2742"/>
<path d="M49.6855 6.78496L48.0644 6.89931L48.6832 4.1973L49.6855 6.78496Z" fill="#0C2742"/>
<path fill-rule="evenodd" clip-rule="evenodd" d="M40.8643 1.23755C50.2981 -0.924027 60.1614 -0.241433 69.207 3.20017C78.2525 6.64189 86.075 12.6883 91.686 20.5741C97.2969 28.4599 100.445 37.8323 100.732 47.5063C100.922 53.9399 99.8413 60.3485 97.5525 66.3642C95.2637 72.3797 91.8111 77.8851 87.3923 82.5648C82.9733 87.2447 77.6745 91.0075 71.7998 93.6373C71.2503 93.8832 70.696 94.1171 70.1383 94.3413L72.5737 78.8606C74.634 77.4286 76.5468 75.7854 78.2774 73.9522C81.5649 70.4696 84.1345 66.3731 85.8386 61.8973C87.5425 57.4217 88.3483 52.654 88.2093 47.867C88.0023 40.6565 85.662 33.6685 81.4839 27.7882C77.3057 21.9079 71.477 17.3982 64.7361 14.8303C57.9952 12.2626 50.6437 11.7514 43.6123 13.3615C36.5808 14.9717 30.1838 18.6315 25.2321 23.8769C20.2805 29.1223 16.995 35.7187 15.7921 42.831C14.5893 49.9436 15.5238 57.254 18.4754 63.8361C21.427 70.418 26.2645 75.9775 32.3755 79.8103C32.3765 79.8109 32.3775 79.8115 32.3785 79.8121L30.2144 92.8935C28.6884 92.1442 27.1972 91.314 25.7486 90.4036C17.5546 85.2537 11.0709 77.7903 7.11656 68.957C3.16235 60.1234 1.9153 50.3149 3.53287 40.7728C5.15053 31.2309 9.55977 22.3819 16.2043 15.3451C22.8489 8.30833 31.4307 3.39917 40.8643 1.23755ZM81.7776 75.1107L82.4056 76.2685L80.8044 77.8914L79.6345 77.2833L78.808 78.1201L84.4146 81.0537L85.6132 79.8397L82.6038 74.2742L81.7776 75.1107ZM19.4725 73.2896C19.1822 73.2476 18.8771 73.2764 18.5581 73.3768C18.2354 73.4767 17.9107 73.6592 17.5849 73.9239C17.2589 74.1887 17.012 74.4707 16.8459 74.768C16.678 75.0632 16.5844 75.3585 16.5639 75.653C16.5412 75.9492 16.5868 76.2316 16.7003 76.5001C16.8138 76.7687 16.9891 77.0075 17.2264 77.2152L16.8352 77.5329L17.5503 78.4138L17.9415 78.0958C18.0962 78.3704 18.2933 78.5915 18.5327 78.7576C18.7705 78.9215 19.0376 79.0221 19.3321 79.0606C19.6246 79.1008 19.9334 79.0693 20.2567 78.9654C20.58 78.8614 20.9047 78.6765 21.2307 78.4116C21.5566 78.1468 21.8033 77.8671 21.969 77.5737C22.1323 77.2822 22.2231 76.9898 22.2414 76.6972C22.2575 76.4063 22.2087 76.1282 22.0947 75.8637C21.9768 75.5987 21.7993 75.3614 21.562 75.1537L22.2469 74.5982L21.5307 73.7172L20.8461 74.2742C20.6914 73.9995 20.496 73.7769 20.2608 73.6073C20.0234 73.4394 19.7606 73.3334 19.4725 73.2896ZM84.7146 71.3373C84.681 71.3854 84.6369 71.4504 84.5833 71.5322C84.5303 71.6179 84.4841 71.6958 84.4462 71.7649C84.2759 72.0728 84.1979 72.3724 84.2112 72.6616C84.2254 72.9546 84.3109 73.2259 84.4679 73.4753C84.6273 73.7264 84.8395 73.9441 85.1036 74.1283C85.3677 74.3125 85.6448 74.4344 85.9349 74.4934C86.2257 74.5562 86.5105 74.543 86.7882 74.4533C87.0665 74.3674 87.3201 74.1922 87.5486 73.9283C87.6003 73.8688 87.6564 73.7982 87.7162 73.7172C87.7784 73.6378 87.8258 73.5745 87.8578 73.5286L88.6652 72.3712L89.6101 73.0297L87.8883 75.4978L88.7637 76.1078L91.1385 72.7024L86.175 69.2412L84.7146 71.3373ZM15.7281 66.7458L17.0764 69.2077L15.7134 69.9541L14.6071 67.9349L13.671 68.4474L14.777 70.467L13.6416 71.0887L12.293 68.6257L11.358 69.1386L13.2548 72.6039L18.5622 69.6975L16.6646 66.2329L15.7281 66.7458ZM89.7653 61.6686L91.4985 64.4012L89.0439 63.3445L88.5909 64.3938L91.0455 65.4509L87.8696 66.0686L87.3148 67.358L90.9793 66.6032L92.935 69.6052L93.4707 68.3625L91.6628 65.7171L94.149 66.7877L94.6009 65.738L92.1158 64.6677L95.2792 64.1633L95.8142 62.9209L92.2901 63.5625L90.3197 60.3803L89.7653 61.6686ZM12.9055 59.385L13.0511 59.8244L8.32031 61.3922L9.57628 65.2075C9.97329 65.1054 10.3438 65.0101 10.6859 64.9203C11.025 64.8315 11.3534 64.7451 11.6713 64.6633C11.9867 64.5824 12.3093 64.5024 12.6371 64.4232C12.8939 64.3617 13.1361 64.3184 13.3637 64.2931C13.5913 64.2678 13.7985 64.2681 13.9835 64.2923C14.1656 64.3175 14.3209 64.3765 14.449 64.4696C14.5736 64.561 14.6653 64.6933 14.7226 64.8659L16.6929 64.2126L16.333 63.1272L15.3759 63.4449L14.2792 60.1347L15.2362 59.8171L14.8766 58.7321L12.9055 59.385ZM91.0874 56.3779L96.4201 60.4189L96.6709 59.2269L93.8795 57.1886L97.2452 56.4966L97.5117 55.23L92.8258 56.3569L91.3378 55.1859L91.0874 56.3779ZM11.7069 52.7449L12.0992 55.5245L10.5598 55.7414L10.2381 53.4622L9.18103 53.6108L9.50311 55.8903L8.22178 56.072L7.82874 53.2924L6.77279 53.4409L7.32429 57.3529L13.3155 56.5069L12.764 52.596L11.7069 52.7449ZM91.9283 46.632C91.8531 46.96 91.8354 47.2343 91.8757 47.4541C91.9161 47.6739 92.0065 47.8553 92.1474 47.9972C92.2911 48.1419 92.4765 48.2601 92.703 48.3516C92.9325 48.4432 93.197 48.523 93.4946 48.5917C93.8003 48.6662 94.1165 48.731 94.4424 48.7866C94.7683 48.8421 95.0834 48.8906 95.3873 48.9314C95.6913 48.9723 95.9695 49.006 96.2208 49.0311C96.4722 49.059 96.677 49.0809 96.8334 49.0972L96.7694 51.0294L91.7878 50.865L91.75 52.0066L97.7978 52.207L97.9342 48.0821C97.7525 48.0677 97.5076 48.0473 97.2003 48.0203C96.8958 47.9935 96.5575 47.9586 96.1863 47.9156C95.815 47.8725 95.4351 47.8205 95.0476 47.76C94.6629 47.7025 94.2962 47.6343 93.9486 47.5556C93.7293 47.5064 93.546 47.4562 93.3993 47.4038C93.2554 47.3514 93.1426 47.2904 93.0607 47.2232C92.9817 47.159 92.9282 47.082 92.9004 46.9916C92.8726 46.9011 92.8646 46.7909 92.8772 46.6625L91.9283 46.632ZM8.57915 45.7437C8.24042 45.7403 7.93326 45.7918 7.65777 45.8981C7.3796 46.0045 7.14796 46.173 6.96361 46.4033C6.77933 46.631 6.65641 46.9257 6.59667 47.2861C6.58189 47.3643 6.5733 47.455 6.56947 47.5556C6.5629 47.6532 6.55831 47.7319 6.5577 47.7905L6.5327 50.3448L12.5827 50.4065L12.5941 49.2638L10.5444 49.2428L10.558 47.8314C10.5585 47.7754 10.5574 47.6963 10.5528 47.5957C10.5482 47.495 10.54 47.4046 10.5296 47.3262C10.4772 46.9674 10.3611 46.6715 10.1815 46.4401C10.0018 46.2061 9.77515 46.0329 9.50201 45.9209C9.22588 45.8061 8.91802 45.7472 8.57915 45.7437ZM7.29598 40.4206L7.00552 42.1012L12.6548 44.9514L12.8541 43.7914L11.6768 43.1991L12.0636 40.9544L13.3732 40.7853L13.5725 39.6257L7.29598 40.4206ZM95.5708 39.1014C95.0672 38.9408 94.5048 38.9087 93.8847 39.004C93.2646 39.0993 92.738 39.2985 92.3059 39.6029C91.8742 39.9101 91.5611 40.3 91.3672 40.7717C91.1738 41.2463 91.1235 41.7834 91.2154 42.3814C91.3209 43.0678 91.5793 43.618 91.9912 44.0307C92.4035 44.4462 92.9155 44.7048 93.5262 44.8065L93.6677 43.6197C93.2908 43.5642 92.9801 43.4207 92.7375 43.1888C92.4952 42.9568 92.3421 42.6329 92.2783 42.2178C92.2201 41.8387 92.2557 41.5085 92.3853 41.228C92.5155 40.9502 92.7249 40.7231 93.0125 40.5485C93.3003 40.374 93.6522 40.2546 94.0674 40.1908C94.4825 40.127 94.8539 40.1361 95.1807 40.2162C95.5074 40.2963 95.7754 40.4495 95.983 40.6754C96.1907 40.904 96.324 41.2087 96.3822 41.5876C96.446 42.0026 96.3971 42.358 96.2355 42.652C96.0767 42.9454 95.8239 43.1753 95.4785 43.3417L95.9683 44.4311C96.5203 44.1507 96.9317 43.7498 97.2003 43.2296C97.469 42.7123 97.551 42.1102 97.4456 41.424C97.3536 40.8262 97.1433 40.3298 96.8165 39.9353C96.4899 39.5435 96.0747 39.2648 95.5708 39.1014ZM8.64239 34.8173C8.81022 34.888 9.03564 34.9846 9.31854 35.1066C9.5992 35.2279 9.9095 35.3675 10.2484 35.5251C10.5873 35.6826 10.9316 35.8511 11.2804 36.0302C11.6276 36.2058 11.9542 36.3863 12.2595 36.5703C12.4524 36.6861 12.6107 36.7921 12.7335 36.888C12.8536 36.9829 12.9423 37.0755 12.9989 37.1649C13.0537 37.2505 13.0802 37.341 13.0783 37.4355C13.0763 37.5302 13.049 37.6374 12.9967 37.7553L13.888 38.0833C14.0625 37.7956 14.1645 37.5403 14.1953 37.3189C14.226 37.0977 14.1973 36.8971 14.1082 36.7181C14.0173 36.5356 13.8783 36.3648 13.692 36.2067C13.5029 36.0476 13.2775 35.8882 13.0166 35.7295C12.7497 35.5626 12.4699 35.4012 12.1779 35.246C11.8861 35.0909 11.602 34.9464 11.3264 34.8121C11.0506 34.6778 10.7971 34.5583 10.5664 34.4555C10.3368 34.3501 10.1497 34.2654 10.0065 34.2007L10.6741 32.387L15.3505 34.1084L15.7458 33.0359L10.0671 30.945L8.64239 34.8173ZM92.1106 28.5544C91.8155 28.5639 91.5124 28.6364 91.2018 28.7717C90.737 28.9742 90.3889 29.2633 90.1583 29.6386C90.0178 29.8693 89.947 30.1292 89.9454 30.4177L87.4541 30.313L87.971 31.4987L90.2473 31.5899L90.7569 32.7602L88.877 33.579L89.3344 34.6265L94.881 32.2098L93.8608 29.8673C93.8373 29.8135 93.803 29.7428 93.7589 29.6556C93.7172 29.5669 93.674 29.4872 93.6288 29.4184C93.4332 29.1099 93.2059 28.8863 92.9475 28.7485C92.6889 28.6107 92.4095 28.5464 92.1106 28.5544ZM16.5039 25.4571C16.2097 25.411 15.9251 25.4424 15.6506 25.5505C15.3773 25.6563 15.1256 25.8497 14.8957 26.1303C14.844 26.1908 14.7907 26.264 14.7373 26.3495C14.6817 26.4331 14.6399 26.4994 14.6115 26.5476L13.8964 27.765L12.1286 26.7271L11.5488 27.7124L16.7661 30.7773L18.0599 28.5742C18.0897 28.5236 18.1273 28.454 18.1721 28.3669C18.2182 28.2773 18.2564 28.1955 18.2864 28.1224C18.421 27.7825 18.4686 27.4669 18.428 27.1767C18.3886 26.8843 18.2779 26.6211 18.0967 26.3881C17.913 26.1536 17.6747 25.9508 17.3827 25.7792C17.0905 25.6076 16.7973 25.4996 16.5039 25.4571ZM83.6259 24.3008L84.273 25.2832L85.5363 24.9089L86.7905 26.812L85.9518 27.8312L86.5996 28.8136L90.6345 23.9401L89.6958 22.515L83.6259 24.3008ZM18.1147 18.2706L20.0049 19.8873L18.2445 21.9437L16.355 20.3255L15.6116 21.194L20.2086 25.1288L20.952 24.2607L19.0563 22.6378L20.8156 20.5814L22.7124 22.2047L23.4547 21.3366L18.8581 17.4026L18.1147 18.2706ZM79.4131 19.7354L81.246 21.6907C81.5276 21.9911 81.818 22.1883 82.1163 22.2812C82.4164 22.3721 82.7121 22.3717 83.0023 22.2801C83.2944 22.1904 83.5724 22.0219 83.8359 21.7749C84.0808 21.5452 84.2374 21.2677 84.3054 20.9432C84.3562 20.7082 84.3344 20.4711 84.2414 20.2325C84.3925 20.2748 84.5492 20.2836 84.7113 20.2575C84.98 20.2167 85.238 20.0803 85.4852 19.8487C85.6792 19.6668 85.8291 19.4411 85.9349 19.1733C86.0405 18.9053 86.0657 18.615 86.0084 18.3041C85.953 17.9914 85.7778 17.677 85.483 17.3625L83.8274 15.5969L79.4131 19.7354ZM22.5058 13.9549L24.8828 19.8182L25.7961 19.0758L25.299 17.8555L27.0678 16.4198L28.1646 17.154L29.079 16.4128L23.8301 12.8791L22.5058 13.9549ZM77.6652 10.9981C77.1574 10.9492 76.6664 11.0441 76.1931 11.2823C75.7222 11.5222 75.2992 11.8941 74.9253 12.3978C74.5515 12.9016 74.3181 13.4148 74.2249 13.9351C74.1342 14.4569 74.1862 14.9543 74.3801 15.426C74.5764 15.8993 74.918 16.3163 75.4037 16.6768C75.8894 17.0371 76.3859 17.2421 76.8935 17.2912C77.4036 17.3418 77.8946 17.2469 78.3656 17.0069C78.8389 16.7687 79.2624 16.3974 79.6363 15.8936C80.0101 15.3898 80.2429 14.8762 80.3338 14.3542C80.4267 13.8341 80.3759 13.3366 80.1797 12.8633C79.9857 12.3918 79.645 11.9762 79.1594 11.6158C78.6736 11.2553 78.1753 11.0487 77.6652 10.9981ZM29.3779 9.09798C29.3268 9.12667 29.2597 9.16721 29.1775 9.21968C29.0935 9.27001 29.019 9.32185 28.9551 9.37373C28.6675 9.59933 28.4678 9.84829 28.3565 10.1194C28.2454 10.3904 28.2084 10.6745 28.2462 10.9709C28.2853 11.2636 28.3879 11.5582 28.5536 11.8537C28.8017 12.2958 29.1247 12.613 29.5213 12.8048C29.7651 12.9216 30.0309 12.9654 30.3184 12.9379L30.4629 15.4271L31.5913 14.7947L31.4549 12.5195L32.5675 11.8956L33.5708 13.6843L34.5669 13.1243L31.606 7.84716L29.3779 9.09798ZM68.2882 12.3728L69.3073 12.8905L71.563 8.4461L74.0657 9.71677L74.5489 8.76487L71.0269 6.97689L68.2882 12.3728ZM41.7754 4.18479L42.3931 6.59414L39.7716 7.26514L39.1543 4.85579L38.0469 5.1389L39.5484 11.001L40.6555 10.7172L40.036 8.29903L42.6571 7.62803L43.277 10.0458L44.384 9.76273L42.8828 3.90058L41.7754 4.18479ZM65.449 4.80542C64.8714 4.62624 64.3332 4.59723 63.8353 4.71828C63.34 4.84022 62.908 5.09208 62.5404 5.47348C62.1754 5.85583 61.9002 6.34758 61.7142 6.94674C61.5283 7.54586 61.4776 8.10671 61.562 8.62846C61.6491 9.15101 61.8626 9.60315 62.2017 9.98407C62.5437 10.3657 63.0039 10.6467 63.5816 10.826C64.1592 11.0052 64.6957 11.0339 65.1909 10.9121C65.6889 10.7909 66.1208 10.5385 66.4858 10.1561C66.8534 9.77461 67.1305 9.28419 67.3164 8.68508C67.5023 8.08602 67.5523 7.5248 67.4653 7.00226C67.3808 6.48049 67.1664 6.02806 66.8245 5.64629C66.4852 5.26556 66.0266 4.98468 65.449 4.80542ZM55.1031 3.76639C55.0527 4.06775 54.9914 4.40213 54.9196 4.76866C54.8478 5.13537 54.7659 5.51035 54.6755 5.89189C54.5882 6.27098 54.4917 6.63129 54.3862 6.97174C54.32 7.18687 54.2546 7.3663 54.1909 7.50854C54.1276 7.64768 54.0597 7.75616 53.9865 7.83246C53.9164 7.90622 53.8347 7.95328 53.7424 7.97401C53.6499 7.9947 53.5399 7.99363 53.4129 7.97107L53.307 8.91451C53.6282 9.01506 53.9006 9.05411 54.1229 9.03106C54.3452 9.00791 54.5333 8.93187 54.6858 8.80237C54.8414 8.67035 54.9733 8.49401 55.0822 8.27513C55.1913 8.0535 55.2925 7.79672 55.384 7.5056C55.4821 7.20666 55.572 6.89596 55.6528 6.57539C55.7335 6.25493 55.8065 5.94422 55.8708 5.64445C55.9352 5.34464 55.9898 5.06977 56.0344 4.82123C56.0817 4.57336 56.1192 4.37163 56.1477 4.21715L58.0684 4.43113L57.5169 9.38329L58.6533 9.51014L59.3225 3.49688L55.2215 3.03987C55.193 3.21981 55.1539 3.46225 55.1031 3.76639ZM47.7699 3.18877L46.3481 9.35388L47.5214 9.27115L47.8148 7.98688L50.0881 7.82731L50.5653 9.05827L51.7386 8.97665L49.4715 3.06928L47.7699 3.18877Z" fill="#0C2742"/>
<path d="M33.3683 80.4099L31.2244 93.3751L31.2233 93.3744L33.3679 80.4096L33.3683 80.4099Z" fill="#0C2742"/>
<path fill-rule="evenodd" clip-rule="evenodd" d="M51.783 13.422C71.3513 13.4221 87.2143 29.2854 87.2144 48.8537C87.2142 61.0672 81.0336 71.8361 71.6303 78.2067L70.1728 79.1086C70.4142 79.1903 70.6502 79.2886 70.8791 79.4031L71.3347 79.631L71.2545 80.1344C70.9451 82.0682 70.611 84.2378 70.2879 86.2796L70.1375 87.2315L70.1338 87.2297L68.2392 99.5128L67.3892 99.0356C66.9241 98.7957 66.4056 98.6766 65.8825 98.6885C63.8085 98.9221 61.7877 99.5014 59.9049 100.402C58.5204 101.055 57.0686 101.556 55.5763 101.896C55.1758 101.959 54.7708 101.993 54.3655 101.999C52.4985 101.999 52.2013 100.995 52.1625 100.492L52.2779 99.4489L50.7837 100.015C49.7921 100.401 48.8512 100.762 48.0269 101.046C46.3643 101.589 44.6227 101.855 42.8736 101.832C38.5923 101.9 34.3832 100.718 30.7633 98.4308L30.4287 98.1852L32.3174 86.102L32.3075 86.0958L32.4682 85.1384L33.4043 79.1516C23.1805 72.9367 16.3515 61.6927 16.3513 48.8537C16.3513 29.2854 32.2147 13.422 51.783 13.422ZM55.7811 91.4693L54.0236 101.166C54.111 101.174 54.2012 101.178 54.2931 101.18L56.0583 91.4432C55.964 91.4519 55.8714 91.4603 55.7811 91.4693ZM56.3418 91.4171L54.5729 101.179C54.6637 101.176 54.7555 101.172 54.8476 101.166L56.619 91.3961C56.5257 91.4032 56.4331 91.4094 56.3418 91.4171ZM43.5542 95.0313L42.4457 101.142C42.5368 101.143 42.6278 101.143 42.7185 101.143L43.8347 94.9868C43.7413 95.0025 43.6477 95.0172 43.5542 95.0313ZM44.1237 94.9357L42.9983 101.141C43.0894 101.14 43.1805 101.138 43.2711 101.135L44.4057 94.8813C44.3118 94.9002 44.2178 94.9183 44.1237 94.9357ZM56.9017 91.3756L55.1318 101.14C55.2247 101.131 55.3174 101.122 55.4086 101.111L57.1771 91.3597C57.0851 91.3648 56.9932 91.3695 56.9017 91.3756ZM42.9894 95.107L41.8975 101.128C41.9881 101.132 42.0788 101.135 42.1692 101.137L43.2678 95.0721C43.175 95.0845 43.0823 95.0963 42.9894 95.107ZM55.2193 91.5296L53.4909 101.061C53.5724 101.088 53.659 101.111 53.7508 101.128L55.4965 91.4987C55.4004 91.509 55.3078 91.5195 55.2193 91.5296ZM44.6954 94.8206L43.552 101.125C43.6442 101.122 43.7362 101.117 43.8277 101.112L44.9804 94.7563C44.8855 94.7784 44.7905 94.7999 44.6954 94.8206ZM42.4276 95.1618L41.3511 101.102C41.441 101.108 41.5309 101.113 41.6206 101.117L42.7052 95.1372C42.6127 95.1462 42.5202 95.1545 42.4276 95.1618ZM45.2716 94.6861L44.1097 101.094C44.2024 101.087 44.2948 101.08 44.3866 101.072L45.5573 94.6133C45.4622 94.6383 45.3669 94.6623 45.2716 94.6861ZM41.8706 95.1953L40.8069 101.064C40.8964 101.071 40.986 101.077 41.0753 101.084L42.1449 95.1813C42.0534 95.1868 41.962 95.1916 41.8706 95.1953ZM57.4584 91.3447L55.6958 101.063C55.7885 101.045 55.8829 101.024 55.9789 101.002L57.733 91.3351C57.6419 91.3378 57.5503 91.3407 57.4584 91.3447ZM45.8507 94.5331L44.6697 101.045C44.7632 101.035 44.8563 101.024 44.9488 101.013L46.1385 94.4507C46.0428 94.4788 45.9468 94.5063 45.8507 94.5331ZM41.3173 95.2063L40.265 101.011C40.3537 101.021 40.4426 101.029 40.5312 101.037L41.5901 95.2034C41.4991 95.2052 41.4082 95.2063 41.3173 95.2063ZM39.7249 100.946C39.8136 100.958 39.9024 100.968 39.9911 100.979L41.0386 95.203C40.9482 95.2011 40.8579 95.1984 40.7676 95.1945L39.7249 100.946ZM46.4338 94.3621L45.2337 100.977C45.3277 100.964 45.4211 100.948 45.5139 100.934L46.7228 94.271C46.6267 94.3019 46.5304 94.3324 46.4338 94.3621ZM54.6549 91.5987L52.9971 100.746C53.0593 100.827 53.1385 100.895 53.232 100.95L54.9343 91.5631C54.8325 91.5754 54.7389 91.5879 54.6549 91.5987ZM58.0121 91.3289L56.2727 100.928C56.3667 100.903 56.4621 100.876 56.5587 100.847L58.2864 91.3274C58.1961 91.327 58.1046 91.3275 58.0121 91.3289ZM39.187 100.871C39.2753 100.884 39.3641 100.896 39.4524 100.909L40.4911 95.1798C40.4014 95.174 40.3118 95.1671 40.2223 95.1593L39.187 100.871ZM47.0187 94.1735L45.801 100.888C45.8959 100.872 45.9896 100.851 46.083 100.833L47.3096 94.0739C47.2129 94.1077 47.116 94.1409 47.0187 94.1735ZM38.6513 100.781C38.7391 100.797 38.8273 100.811 38.9153 100.825L39.9481 95.1328C39.8591 95.1234 39.7702 95.1134 39.6815 95.1026L38.6513 100.781ZM49.8947 93.0966C49.4578 93.2576 49.046 93.4125 48.6696 93.558C48.3209 93.7007 47.9665 93.8378 47.6078 93.968L46.3735 100.773C46.4694 100.752 46.5646 100.73 46.6588 100.707L47.8993 93.8654C47.9982 93.8323 48.0972 93.7967 48.1968 93.7617L46.9515 100.631C47.048 100.604 47.1442 100.579 47.2386 100.551L48.4883 93.6577C48.5874 93.6214 48.6875 93.5847 48.7872 93.5466L47.5342 100.456C47.5845 100.439 47.6357 100.424 47.6853 100.407C47.7315 100.391 47.7776 100.373 47.8247 100.356L49.081 93.4312C49.1808 93.3915 49.2814 93.3514 49.3818 93.3099L48.1247 100.247C48.2202 100.212 48.3175 100.177 48.4159 100.141L49.6763 93.186C49.685 93.1822 49.6947 93.1794 49.7035 93.1757C49.766 93.1488 49.8301 93.1229 49.8947 93.0966ZM56.8547 100.757C56.9504 100.727 57.0474 100.694 57.1451 100.661L58.8338 91.3421C58.7459 91.3374 58.6557 91.3339 58.5636 91.3314L56.8547 100.757ZM38.1185 100.682C38.206 100.699 38.2941 100.715 38.3818 100.731L39.4091 95.0673C39.3206 95.0552 39.2322 95.0425 39.144 95.0291L38.1185 100.682ZM37.5869 100.57C37.674 100.589 37.7616 100.608 37.849 100.626L38.8723 94.9857C38.7842 94.9709 38.6964 94.9555 38.6086 94.9394L37.5869 100.57ZM57.4429 100.556C57.5392 100.521 57.6362 100.485 57.7341 100.448L59.3765 91.3925C59.2915 91.3807 59.2025 91.3699 59.11 91.3616L57.4429 100.556ZM37.0585 100.444C37.1454 100.465 37.2323 100.487 37.3196 100.508L38.3377 94.8875C38.2501 94.8701 38.1627 94.8522 38.0755 94.8335L37.0585 100.444ZM36.532 100.307C36.6181 100.331 36.7047 100.354 36.7912 100.377L37.8079 94.7736C37.7205 94.7534 37.6334 94.7326 37.5464 94.7111L36.532 100.307ZM58.0342 100.334C58.1306 100.297 58.229 100.261 58.3268 100.222L59.9071 91.5083C59.8288 91.4817 59.7417 91.4589 59.6471 91.4388L58.0342 100.334ZM36.007 100.158C36.0929 100.183 36.1793 100.208 36.2658 100.233L37.2802 94.643C37.1934 94.6202 37.1068 94.5966 37.0203 94.5724L36.007 100.158ZM58.6287 100.1C58.726 100.061 58.8237 100.02 58.9221 99.9805L60.3964 91.8546C60.3428 91.7843 60.2809 91.7191 60.2089 91.6616C60.195 91.6505 60.1801 91.6397 60.1644 91.6292L58.6287 100.1ZM35.4856 99.9941C35.5709 100.022 35.6566 100.05 35.7426 100.077L36.7545 94.496C36.6685 94.4705 36.5827 94.4441 36.4971 94.4173L35.4856 99.9941ZM49.9778 93.0661L48.7148 100.032C48.8103 99.996 48.9076 99.9607 49.0053 99.9239L50.2686 92.9587C50.1704 92.9943 50.0737 93.0309 49.9778 93.0661ZM34.9658 99.8169C35.0509 99.8472 35.1364 99.8776 35.2224 99.907L36.2331 94.3327C36.1475 94.3044 36.062 94.2755 35.9769 94.246L34.9658 99.8169ZM60.4575 91.9418C60.5177 92.1016 60.5395 92.2859 60.5159 92.4962L60.2884 93.9746L60.2917 93.9724L59.2232 99.8588C59.3209 99.8189 59.4193 99.7786 59.5177 99.7382L60.5851 93.8559C60.5912 93.8534 60.5973 93.8509 60.6034 93.8485C60.6676 93.5744 60.8602 92.5803 60.4575 91.9418ZM50.5675 92.8514L49.3064 99.8096C49.4029 99.7729 49.5005 99.736 49.5987 99.6985L50.8587 92.7481C50.7608 92.7826 50.6637 92.817 50.5675 92.8514ZM34.4499 99.625C34.5343 99.6577 34.6193 99.6906 34.7047 99.7224L35.7143 94.1526C35.6291 94.1215 35.544 94.0898 35.4592 94.0573L34.4499 99.625ZM60.8777 93.7768L59.8188 99.6165C59.9162 99.5766 60.0143 99.537 60.1122 99.497L61.1755 93.6345C61.0615 93.688 60.9615 93.7361 60.8777 93.7768ZM51.1565 92.6433L49.8987 99.5842C49.9951 99.5472 50.0927 99.5103 50.1903 99.4728L51.4473 92.5433C51.3498 92.5767 51.2528 92.6098 51.1565 92.6433ZM33.9359 99.4161C34.0197 99.4515 34.104 99.4876 34.1889 99.522L35.1985 93.9555C35.1137 93.9215 35.0291 93.8867 34.9448 93.8514L33.9359 99.4161ZM62.4172 93.0889C62.0698 93.2307 61.7512 93.3695 61.4807 93.4922L60.4145 99.3753C60.5121 99.3358 60.61 99.2962 60.7079 99.2569L61.7774 93.3621C61.8788 93.3186 61.9798 93.2757 62.0793 93.233L61.0086 99.1386C61.106 99.1001 61.2038 99.0619 61.3013 99.0242L62.3749 93.1073C62.389 93.1013 62.403 93.0949 62.4172 93.0889ZM51.7452 92.4422L50.491 99.3577C50.588 99.3204 50.6858 99.2832 50.7837 99.2455L52.0356 92.3447C51.9383 92.377 51.8415 92.4097 51.7452 92.4422ZM33.4252 99.1908C33.5082 99.229 33.5917 99.2679 33.676 99.3051L34.686 93.7408C34.6017 93.704 34.5178 93.6664 34.4341 93.6283L33.4252 99.1908ZM52.3316 92.248L51.0833 99.1301C51.1805 99.0928 51.2783 99.0553 51.376 99.018L52.6206 92.1543C52.5239 92.1851 52.4277 92.2168 52.3316 92.248ZM32.9178 98.9477C33.0003 98.9892 33.0835 99.0309 33.1675 99.0713L34.176 93.5084C34.0924 93.4687 34.0093 93.4281 33.9264 93.3871L32.9178 98.9477ZM62.6756 92.9856L61.6024 98.9077C61.6993 98.8711 61.7968 98.8362 61.8936 98.8007L62.969 92.8727C62.8698 92.9103 62.7718 92.9477 62.6756 92.9856ZM52.9166 92.0613L51.676 98.9036C51.7731 98.8667 51.871 98.8312 51.9683 98.7944L53.2059 91.9715C53.1093 92.0011 53.0129 92.0311 52.9166 92.0613ZM32.4145 98.6812C32.4961 98.7262 32.5786 98.7715 32.6619 98.8154L33.6701 93.258C33.587 93.2153 33.5043 93.1719 33.4219 93.1279L32.4145 98.6812ZM63.268 92.762L62.1914 98.694C62.289 98.6595 62.3858 98.6231 62.483 98.59L63.5592 92.6587C63.4613 92.6922 63.3643 92.7273 63.268 92.762ZM53.5008 91.8822L52.2672 98.6823C52.3647 98.6457 52.4625 98.6097 52.5599 98.5734L53.7883 91.798C53.6925 91.8259 53.5965 91.8536 53.5008 91.8822ZM31.9145 98.394C31.9953 98.4431 32.078 98.4906 32.1608 98.5385L33.1678 92.9893C33.0853 92.9434 33.003 92.8968 32.9211 92.8495L31.9145 98.394ZM63.8555 92.5609L62.7797 98.4915C62.8763 98.4601 62.973 98.4298 63.069 98.4003L64.1449 92.4705C64.0483 92.4994 63.9518 92.53 63.8555 92.5609ZM54.3501 91.6381C54.2611 91.6626 54.172 91.6874 54.0828 91.7127L52.8588 98.4609C52.9248 98.4367 52.9908 98.4118 53.0566 98.3878L53.1511 98.3573L54.3696 91.6355C54.3629 91.6364 54.3564 91.6372 54.3501 91.6381ZM64.4383 92.3866L63.3647 98.312C63.46 98.2846 63.5554 98.2588 63.65 98.2337L64.7243 92.3116C64.6294 92.335 64.534 92.3604 64.4383 92.3866ZM31.4218 98.0786C31.5011 98.132 31.5821 98.1845 31.6637 98.2367L32.6686 92.701C32.5863 92.6518 32.5044 92.6019 32.4229 92.5514L31.4218 98.0786ZM68.2782 92.5043L67.2557 98.1414C67.3128 98.1631 67.3693 98.1868 67.4248 98.2117L68.4455 92.5793C68.3707 92.5366 68.2964 92.4964 68.222 92.4591C68.2428 92.475 68.2615 92.4902 68.2782 92.5043ZM65.1034 92.2263C65.0741 92.2323 65.0449 92.2388 65.0155 92.2451L63.9437 98.1602C64.0389 98.1372 64.1335 98.1153 64.2276 98.0951L65.2982 92.1892C65.2345 92.201 65.1693 92.2129 65.1034 92.2263ZM66.7318 97.9892C66.8201 98.0074 66.9063 98.0321 66.9917 98.0565L68.0238 92.3657C67.9395 92.3288 67.855 92.2954 67.7697 92.2653L66.7318 97.9892ZM65.5858 92.1403L64.5173 98.0363C64.6115 98.0188 64.7053 98.0034 64.7982 97.9892L65.8656 92.1021C65.7746 92.1127 65.6815 92.1256 65.5858 92.1403ZM66.4248 92.0627C66.3354 92.0645 66.2437 92.0678 66.1498 92.0745L65.0835 97.9513C65.1769 97.9404 65.2694 97.9305 65.3611 97.9234L66.4248 92.0627ZM66.1928 97.9201C66.2831 97.9266 66.3722 97.9344 66.4601 97.9462L67.5061 92.1833C67.4201 92.1604 67.333 92.1406 67.2443 92.1241L66.1928 97.9201ZM65.6431 97.9065C65.735 97.9035 65.826 97.905 65.9159 97.9065L66.9719 92.0852C66.8839 92.0756 66.7942 92.0694 66.7024 92.0657L65.6431 97.9065ZM31.0662 97.8311C31.101 97.8565 31.1379 97.8803 31.1732 97.9054L32.1726 92.3955C32.1844 92.4024 32.1968 92.4092 32.2093 92.4164C32.1655 92.3883 32.1213 92.3607 32.0777 92.3322L32.0891 92.2653L31.0662 97.8311ZM68.5279 92.6304C68.5281 92.6293 68.528 92.6282 68.5282 92.6271C68.5056 92.6136 68.4828 92.6008 68.4602 92.5878C68.4842 92.602 68.5066 92.617 68.5279 92.6304ZM62.8602 79.3454C61.0625 77.2709 56.2439 78.0068 50.1101 80.3263C45.3595 82.1444 41.6914 82.341 38.9087 81.872C38.8966 81.87 38.8846 81.8682 38.8726 81.8661C38.6658 81.8307 38.4638 81.7916 38.2667 81.7492C38.2468 81.7449 38.227 81.7403 38.2071 81.736C38.1232 81.7175 38.0401 81.6989 37.9579 81.6793C37.9461 81.6765 37.9343 81.6737 37.9226 81.6709C37.8256 81.6475 37.7299 81.6237 37.6354 81.5988C37.6294 81.5972 37.6234 81.5956 37.6174 81.594C37.5264 81.57 37.4366 81.5451 37.3479 81.5198C37.3417 81.518 37.3354 81.5164 37.3291 81.5146C37.153 81.464 36.9814 81.4106 36.814 81.3554C36.7896 81.3473 36.7652 81.3393 36.7409 81.3312C36.662 81.3046 36.584 81.2777 36.507 81.2503C36.3917 81.2092 36.2786 81.167 36.1677 81.1242C36.1529 81.1184 36.1383 81.1123 36.1236 81.1065C36.0271 81.0688 35.9322 81.0306 35.839 80.9918C35.8218 80.9846 35.8046 80.9777 35.7875 80.9705C35.5744 80.8807 35.37 80.7882 35.1739 80.694C35.1615 80.688 35.149 80.6823 35.1367 80.6763C35.0467 80.6327 34.9585 80.5885 34.872 80.5443C34.8623 80.5394 34.8526 80.5346 34.843 80.5296C34.6559 80.4336 34.4772 80.3366 34.3065 80.2395C34.2938 80.2323 34.281 80.2251 34.2683 80.2178C34.1844 80.1698 34.1023 80.122 34.0223 80.0741L33.0678 85.7627C33.102 85.785 33.1365 85.8068 33.1708 85.8289C33.1718 85.8295 33.1728 85.8301 33.1737 85.8307L33.1803 85.7928C33.8126 86.1716 34.5336 86.6144 35.3713 87.033C36.9683 87.7642 38.6636 88.2503 40.4202 88.4827C42.6311 88.6669 45.3238 88.3522 48.6438 87.0815C54.7776 84.7621 60.7181 83.9889 61.7877 85.7542C61.7043 86.3384 61.6165 86.972 61.5263 87.6283C63.0309 86.8642 65.872 85.4353 67.7657 85.3902C68.5152 85.3724 69.3294 85.6097 69.5823 86.1616L69.6018 86.1712C69.924 84.1352 70.2592 81.9573 70.5684 80.0245C69.9853 79.7328 69.3495 79.561 68.6988 79.5189C68.6491 79.5157 68.5993 79.5132 68.5495 79.5116C68.5179 79.5105 68.4863 79.5094 68.4547 79.509C68.2922 79.5066 68.1298 79.5125 67.9683 79.5263C67.5641 79.5609 67.1648 79.6457 66.7799 79.7796C66.4683 79.8557 66.1153 79.9557 65.731 80.073C65.5715 80.1217 65.4068 80.1736 65.2372 80.2278C64.7256 80.3911 64.1711 80.5769 63.5933 80.7727C63.5824 80.7187 63.5694 80.6643 63.5544 80.6094C63.4558 80.2486 63.2667 79.8695 62.9569 79.4671L62.8602 79.3454ZM51.783 14.8552C33.0062 14.8552 17.7845 30.0769 17.7845 48.8537C17.7847 64.1952 27.947 77.1593 41.9066 81.3903C44.1063 81.3467 46.7367 80.8734 49.8619 79.6774L49.8645 79.6763C52.9546 78.5077 55.7589 77.72 58.0437 77.4967C60.2153 77.2845 62.1281 77.5634 63.2764 78.7707L63.3852 78.8902L63.3911 78.8972L63.397 78.9045C63.669 79.2359 63.878 79.5648 64.029 79.8921C65.0011 79.5673 65.8911 79.2837 66.5836 79.1126C66.9795 78.9777 67.3884 78.8877 67.8024 78.8442C78.5014 73.1179 85.781 61.8373 85.7812 48.8537C85.7811 30.0769 70.5598 14.8553 51.783 14.8552Z" fill="#0C2742"/>
</svg>
