<svg width="102" height="102" viewBox="0 0 102 102" fill="none" xmlns="http://www.w3.org/2000/svg">
<path d="M51.5206 96.1145C50.0711 96.1371 48.6552 95.6872 47.498 94.8357L15.6924 71.4533V54.4447L47.498 77.8261C48.6552 78.6778 50.0709 79.1282 51.5206 79.1059V96.1145Z" fill="#0C2742"/>
<path d="M51.5206 56.0338V72.9714C50.1092 72.9927 48.6934 72.5691 47.5056 71.6979L15.6924 48.3895V31.5619H15.8433L47.5056 54.7603C48.6615 55.6081 50.0743 56.0563 51.5206 56.0338Z" fill="#0C2742"/>
<path d="M51.5207 5.88452V20.307C50.8692 20.3281 50.2232 20.5388 49.6749 20.9389L30.0922 35.2322L23.1448 30.1425C22.7406 29.8462 22.4126 29.4622 22.187 29.0212C21.9613 28.5799 21.8441 28.0936 21.8446 27.6005C21.8452 27.1074 21.9634 26.6214 22.19 26.1805C22.4166 25.7398 22.7454 25.3565 23.1502 25.0611L47.6882 7.15167C48.7949 6.34261 50.1374 5.89873 51.5207 5.88452Z" fill="#0C2742" fill-opacity="0.7"/>
<path d="M51.5207 26.5252V37.2447C50.8692 37.2659 50.2232 37.4766 49.6749 37.8766L44.7708 41.4558L40.8774 38.604C40.4733 38.3078 40.1451 37.9241 39.9194 37.4828C39.6937 37.0417 39.5764 36.5554 39.5767 36.0623C39.5773 35.5692 39.6953 35.083 39.9219 34.6423C40.1484 34.2014 40.4771 33.8182 40.8819 33.5227L49.6 27.1593C50.1546 26.754 50.8274 26.5318 51.5207 26.5252Z" fill="#0C2742" fill-opacity="0.34"/>
<path d="M51.5206 96.1145V79.1059C52.9703 79.1282 54.386 78.6778 55.5432 77.8261L87.3488 54.4447V71.4533L71.446 83.1445L55.5432 94.8357C54.3858 95.6872 52.9701 96.1371 51.5206 96.1145Z" fill="#0C2742" fill-opacity="0.7"/>
<path d="M51.5206 56.0338C52.932 56.0549 54.3478 55.6315 55.5355 54.7603L87.1967 31.5619H87.3488V48.3886L71.4421 60.0443L55.5355 71.7001C54.3792 72.5468 52.9666 72.9948 51.5206 72.9714V56.0338Z" fill="#0C2742" fill-opacity="0.34"/>
<path d="M51.1579 5.88452C52.5411 5.89873 53.8837 6.34261 54.9906 7.15167L79.5296 25.0611C79.9343 25.3567 80.263 25.7399 80.4896 26.1808C80.716 26.6216 80.8342 27.1077 80.8346 27.6008C80.8349 28.0937 80.7176 28.5801 80.4919 29.0213C80.2662 29.4624 79.9382 29.8463 79.5339 30.1425L72.5875 35.2322L53.0047 20.94C52.4706 20.5496 51.8262 20.329 51.1591 20.308L51.1579 5.88452Z" fill="#0C2742"/>
<path d="M51.5207 26.5252C52.2137 26.5318 52.8856 26.754 53.4402 27.1593L62.1584 33.5217C62.563 33.8171 62.8917 34.2004 63.1183 34.6412C63.3447 35.082 63.463 35.5681 63.4633 36.0612C63.4637 36.5543 63.3463 37.0407 63.1206 37.4817C62.8949 37.923 62.567 38.3067 62.1627 38.6029L58.2694 41.4558L53.3652 37.8777C52.8312 37.4871 52.1879 37.2661 51.5207 37.2447V26.5252Z" fill="#0C2742"/>
</svg>
