<svg width="102" height="102" viewBox="0 0 102 102" fill="none" xmlns="http://www.w3.org/2000/svg">
<path fill-rule="evenodd" clip-rule="evenodd" d="M58.3935 45.4143L58.3994 45.4202L58.4189 45.4436L58.5029 45.551C58.5769 45.6411 58.6903 45.7728 58.8271 45.9338C59.1029 46.2584 59.4909 46.7083 59.9482 47.1995C60.8758 48.1957 62.0428 49.3308 63.081 50.0139C64.2111 50.7568 65.8738 51.4129 67.2939 51.8889C67.9946 52.1237 68.6229 52.3101 69.0752 52.4378C69.3005 52.5013 69.4858 52.5475 69.6103 52.5803L69.751 52.6233L69.7881 52.6292L70.3369 52.7659L70.3193 53.3088V53.346L70.3115 53.4358L70.2998 53.7932C70.2858 54.101 70.2624 54.5489 70.2275 55.1018C70.1577 56.2095 70.0381 57.7513 69.8428 59.4905C69.4536 62.9553 68.7538 67.2665 67.501 70.4846L67.4404 70.6409C65.7057 75.0971 64.5926 77.9563 61.124 81.5569C59.591 83.1479 57.27 84.7133 55.376 85.8635C54.4218 86.443 53.559 86.9297 52.9365 87.2678C52.6774 87.4084 51.7742 87.8722 51.6084 87.9593C51.4428 87.8723 50.5361 87.4077 50.2783 87.2678C49.6558 86.9298 48.7948 86.4429 47.8408 85.8635C45.9467 84.7133 43.6238 83.1479 42.0908 81.5569C38.6229 77.9567 37.5109 75.0967 35.7763 70.6409L35.7138 70.4846C34.4612 67.2666 33.7632 62.9551 33.374 59.4905C33.1787 57.7513 33.0591 56.2095 32.9892 55.1018C32.9544 54.5489 32.931 54.101 32.917 53.7932L32.9033 53.4358L32.8974 53.346V53.3088L32.8799 52.7659L33.417 52.635L33.4287 52.6292L33.4658 52.6233L33.6045 52.5803C33.729 52.5475 33.9156 52.5015 34.1416 52.4378C34.5938 52.3101 35.2222 52.1237 35.9228 51.8889C37.3425 51.4131 39.0038 50.7565 40.1338 50.0139C41.172 49.3308 42.3409 48.1958 43.2685 47.1995C43.7258 46.7083 44.1139 46.2584 44.3896 45.9338C44.5264 45.7728 44.6398 45.6411 44.7138 45.551L44.7978 45.4436L44.8174 45.4202L44.8232 45.4143L45.0361 45.1526H58.1806L58.3935 45.4143ZM45.6435 46.5549L45.4502 46.801L45.4443 46.8069L45.4267 46.8284L45.3486 46.9299C45.2814 47.014 45.1795 47.1373 45.0556 47.2874C44.8054 47.5906 44.4529 48.0103 44.0381 48.469C43.1962 49.3998 42.1366 50.4596 41.1943 51.0979C40.1686 51.792 38.6592 52.4051 37.3701 52.8499C36.7346 53.0691 36.1653 53.2442 35.7549 53.3635C35.5496 53.4232 35.3796 53.4676 35.2666 53.4983L35.1396 53.5374L35.1064 53.5432L35.0947 53.5471L34.6084 53.6702L34.626 54.178V54.2112L34.6299 54.2952L34.6416 54.6311C34.6543 54.9186 34.6764 55.3359 34.708 55.8518C34.7714 56.8868 34.8783 58.3283 35.0556 59.9534C35.4089 63.1907 36.0436 67.2199 37.1806 70.2268L37.2373 70.3733C38.8118 74.537 39.8214 77.2101 42.9697 80.5745C44.3612 82.061 46.4693 83.5232 48.1885 84.5979C49.0542 85.1391 49.8364 85.5926 50.4013 85.9085C50.6352 86.0391 51.4575 86.4734 51.6084 86.5549C51.7593 86.4734 52.5815 86.0391 52.8154 85.9085C53.3804 85.5926 54.1626 85.1391 55.0283 84.5979C56.7474 83.5232 58.8555 82.061 60.2471 80.5745C63.3954 77.2101 64.405 74.537 65.9795 70.3733L66.0361 70.2268C67.1732 67.2199 67.8079 63.1907 68.1611 59.9534C68.3384 58.3283 68.4454 56.8868 68.5088 55.8518C68.5403 55.3359 68.5625 54.9186 68.5752 54.6311L68.5869 54.2952L68.5928 54.2112V54.178L68.6084 53.6702L68.1103 53.5432L68.0771 53.5374L67.9502 53.4983C67.8373 53.4676 67.6687 53.423 67.4639 53.3635C67.0534 53.2442 66.4826 53.0693 65.8467 52.8499C64.5576 52.4051 63.0482 51.792 62.0224 51.0979C61.0801 50.4596 60.0206 49.3998 59.1787 48.469C58.7639 48.0103 58.4114 47.5906 58.1611 47.2874C58.0373 47.1373 57.9353 47.014 57.8681 46.9299L57.79 46.8284L57.7724 46.8069L57.7666 46.801L57.5732 46.5549H45.6435Z" fill="#0C2742"/>
<path d="M68.4709 79.0486C69.7502 80.5602 70.8041 82.25 71.5952 84.0655C71.9759 85.1518 70.8126 86.1364 69.8041 85.5807C68.1172 84.3375 66.5837 82.8987 65.2298 81.2994L63.2912 79.0084C64.1573 77.8348 64.8268 76.6821 65.4252 75.4512L68.4709 79.0486Z" fill="#0C2742"/>
<path d="M33.1709 40.2891C33.5022 40.0088 33.9994 40.0501 34.28 40.381L37.7912 44.5282L38.2988 44.0991C39.3977 43.2151 40.3044 42.756 41.1435 43.7466L39.6551 45.0071L42.3254 48.162C41.612 48.863 40.8443 49.5465 40.1338 50.0139C39.8519 50.1992 39.5372 50.3777 39.2011 50.5507L36.6572 47.5452L35.142 48.8267C34.3035 47.8356 34.9065 47.0157 35.9599 46.0779L36.5902 45.5454L33.0789 41.3982C32.7988 41.0669 32.84 40.5696 33.1709 40.2891Z" fill="#0C2742"/>
<path d="M38.156 76.1778C38.771 77.3498 39.4751 78.4679 40.3877 79.62L38.8897 81.3919C37.5357 82.9913 36.0023 84.4301 34.3153 85.6732C33.3068 86.229 32.1433 85.2445 32.5243 84.158C33.3154 82.3425 34.3692 80.6528 35.6486 79.1411L38.156 76.1778Z" fill="#0C2742"/>
<path d="M69.8395 40.4735C70.1201 40.1428 70.6173 40.1014 70.9486 40.3816C71.2796 40.6621 71.3206 41.1593 71.0405 41.4907L67.5293 45.6379L68.1595 46.1704C69.2129 47.1082 69.8158 47.9282 68.9775 48.9193L67.4623 47.6378L64.7115 50.8846C64.1139 50.6126 63.5505 50.3225 63.081 50.0139C62.5476 49.6629 61.9818 49.1908 61.4301 48.6817L64.4644 45.0996L62.976 43.8392C63.8149 42.8488 64.7219 43.3078 65.8206 44.1917L66.3282 44.6207L69.8395 40.4735Z" fill="#0C2742"/>
<path d="M50.2783 87.2678L51.6084 87.9593C51.7742 87.8722 52.6774 87.4084 52.9365 87.2678C52.9431 87.2642 52.9501 87.2576 52.9568 87.254C52.9428 87.3967 52.9285 87.5403 52.9185 87.6831C52.9427 87.7506 55.1149 93.8269 55.1157 98.2685C55.1148 100.345 52.0303 101.796 51.4589 102C50.9976 101.794 47.9179 100.343 47.917 98.2685C47.9178 93.8374 50.0793 87.775 50.1122 87.6831C50.0997 87.5044 50.0812 87.3251 50.0624 87.1467C50.1374 87.1879 50.2091 87.2302 50.2783 87.2678Z" fill="#0C2742"/>
<path d="M47.8408 85.8635C48.2171 86.0921 48.5799 86.3038 48.9188 86.4992C49.1489 86.6325 49.3683 86.7571 49.5739 86.8728L49.1908 87.3191C47.2832 89.674 45.4011 93.812 45.0992 98.5769C45.0917 98.6629 45.0005 98.7214 44.9115 98.6976C43.1039 98.2133 40.9155 96.4456 41.3734 94.4833C42.2171 90.8771 44.8336 87.7546 47.7944 85.8345C47.8098 85.844 47.8254 85.8542 47.8408 85.8635Z" fill="#0C2742"/>
<path d="M55.3283 85.8901C58.2521 87.8148 60.8229 90.9131 61.6592 94.4833C62.1158 96.4462 59.9267 98.214 58.1174 98.6976C58.0289 98.7214 57.9386 98.6599 57.9335 98.5731C57.6144 93.5413 55.5274 89.2153 53.5162 86.9437C54.0395 86.651 54.6609 86.2945 55.3283 85.8901Z" fill="#0C2742"/>
<path d="M44.5916 83.6949C45.2356 84.1726 45.9021 84.6306 46.5531 85.053C46.5957 85.0807 46.6371 85.1099 46.6795 85.1373C43.3526 86.8993 39.2729 90.6037 38.3985 95.2342C38.3919 95.2711 38.3662 95.3055 38.3334 95.3262C38.3026 95.3474 38.2637 95.3531 38.2261 95.3453C36.0848 94.9234 34.3227 92.8341 34.8547 91.2997C35.9151 88.2646 40.1652 85.4247 44.5456 83.6623C44.5606 83.6735 44.5765 83.6837 44.5916 83.6949Z" fill="#0C2742"/>
<path d="M58.6058 83.7083C62.944 85.4736 67.1273 88.2913 68.1741 91.2997C68.7108 92.8325 66.9447 94.9229 64.8065 95.3453C64.7685 95.3533 64.7265 95.3466 64.6954 95.3262C64.663 95.3055 64.6408 95.2708 64.6341 95.2342C63.7686 90.6498 59.76 86.9736 56.4508 85.1909C56.4605 85.1847 56.4699 85.178 56.4796 85.1718C57.1818 84.7207 57.9067 84.2261 58.6058 83.7083Z" fill="#0C2742"/>
<path d="M8.49083 18.6174C8.56212 18.556 8.68196 18.5706 8.73028 18.6499C9.76799 20.3594 19.3819 35.9 29.9375 42.6098C30.0661 42.6921 30.1989 42.7717 30.3302 42.8512C30.6306 43.0349 30.6653 43.4251 30.4068 43.6576C29.1913 44.762 28.4338 46.303 28.4338 48.0079C28.4345 50.6938 30.3138 52.9628 32.9143 53.7642L32.917 53.7932C32.931 54.101 32.9544 54.5489 32.9892 55.1018C33.0513 56.0858 33.1541 57.4118 33.3127 58.9151C33.0755 58.8938 32.8587 58.8845 32.6691 58.8845C32.0591 62.5486 30.9713 65.5872 29.5563 67.221C27.2521 69.8737 23.4863 69.8358 21.8557 68.0006C21.831 67.9708 21.8244 67.9283 21.8308 67.8895C21.8379 67.8506 21.8611 67.8167 21.896 67.7976C22.8537 67.2466 28.337 63.8786 29.4356 58.3634C29.0046 58.2141 28.5795 58.0432 28.1733 57.8443C26.4036 60.7716 23.8253 63.3809 21.7523 64.3783C18.2688 66.0477 15.0777 65.2334 13.6629 62.7884C13.6157 62.7029 13.677 62.5963 13.7778 62.5853C15.9333 62.4123 22.5501 60.5191 25.367 55.9019C25.0455 55.6052 24.7275 55.2971 24.4322 54.969C21.487 57.2104 17.3198 59.1945 14.3391 59.599C10.8502 60.0738 6.8966 58.9591 6.79747 54.9039C6.79635 54.8246 6.86877 54.7532 6.95646 54.7583C8.20423 54.834 16.413 55.1845 22.2637 51.8275C22.0596 51.4423 21.8722 51.0461 21.6967 50.6475C21.6967 50.6475 12.8507 52.7401 8.66132 52.0478C4.49741 51.3608 2.05953 48.257 2.52768 44.3951C2.54059 44.2987 2.65125 44.2423 2.74414 44.2879C3.99206 44.9193 11.2396 48.305 20.5167 47.0501C20.4208 46.6085 20.3412 46.1621 20.2754 45.715C14.0942 44.9747 9.06905 43.9241 5.86651 42.1443C2.21925 40.1124 0.619726 35.2655 2.4568 31.6566C2.50353 31.5659 2.64234 31.5503 2.70966 31.6298C3.7348 32.8054 10.078 39.6926 20.0666 41.8379C20.0913 41.3205 20.1379 40.8032 20.2064 40.2901C15.3503 37.5343 10.6097 34.3569 8.35099 31.4555C4.93677 27.0684 5.24904 21.4741 8.49083 18.6174Z" fill="#0C2742"/>
<path d="M93.879 18.5829C93.9239 18.5762 93.9689 18.5872 94.0016 18.6155C97.2498 21.4711 97.5648 27.0703 94.1511 31.4593C91.8912 34.3619 87.1468 37.5326 82.2899 40.2882C82.3584 40.8014 82.4051 41.3204 82.4297 41.8379C92.4271 39.6926 98.7772 32.7922 99.7924 31.6241C99.8601 31.5491 99.9913 31.5642 100.038 31.6547C101.882 35.2636 100.286 40.112 96.6355 42.1443C93.4317 43.9259 88.4068 44.976 82.2267 45.715C82.1596 46.1635 82.0753 46.6071 81.9796 47.0501C91.2664 48.3055 98.5187 44.9154 99.7579 44.2879C99.8472 44.2428 99.9602 44.2992 99.9725 44.3951C100.442 48.2555 98.0039 51.3603 93.8407 52.0478C89.6664 52.7374 80.8697 50.6636 80.8015 50.6475C80.6258 51.0468 80.4414 51.444 80.2383 51.8314C86.0899 55.1884 94.3033 54.8326 95.5456 54.7583C95.6294 54.7538 95.7027 54.8173 95.7027 54.8982C95.6066 58.9569 91.6508 60.071 88.1611 59.5971C85.1775 59.1916 81.0109 57.2122 78.0641 54.969C77.7705 55.2969 77.4506 55.6051 77.1294 55.9C79.9445 60.5185 86.5623 62.412 88.7185 62.5853C88.8219 62.5954 88.8832 62.7023 88.8335 62.7884C87.4185 65.2338 84.2281 66.0464 80.744 64.3745C78.6702 63.3778 76.092 60.772 74.323 57.8443C73.9192 58.044 73.4993 58.2144 73.0664 58.3634C74.165 63.8766 79.6406 67.2451 80.6023 67.7976C80.6368 67.8167 80.6643 67.8507 80.6712 67.8895C80.6776 67.9284 80.6668 67.9709 80.6406 68.0006C79.01 69.8341 75.2459 69.8742 72.9419 67.221C71.5636 65.6279 70.495 62.6986 69.877 59.1565C70.0507 57.5539 70.1622 56.1382 70.2275 55.1018C70.2624 54.5489 70.2858 54.101 70.2998 53.7932L70.3099 53.5017C72.5282 52.5305 74.0676 50.4381 74.0683 48.0079C74.0683 46.3027 73.3065 44.7629 72.0895 43.6596C71.833 43.4244 71.8691 43.0347 72.1719 42.8512C72.3013 42.7734 72.4299 42.6918 72.5569 42.6098C83.1202 35.8973 92.741 20.3432 93.7699 18.6461C93.7944 18.6101 93.8359 18.5883 93.879 18.5829Z" fill="#0C2742"/>
<path d="M48.4399 26.0517C48.5625 27.641 46.4759 30.1872 44.4805 31.1318C47.5427 33.7887 50.3175 38.8693 51.3018 45.1518L45.0361 45.1526L44.8232 45.4143L44.8174 45.4202L44.7978 45.4436L44.7138 45.551C44.6398 45.6411 44.5264 45.7728 44.3896 45.9338C44.1413 46.2261 43.7991 46.6179 43.4001 47.052C46.0266 40.6876 39.4298 30.6325 31.7362 31.7945C29.9716 32.063 29.411 33.2618 29.3034 33.6277C28.7031 33.1224 28.1506 31.3625 28.3648 30.2085C29.3884 24.7558 42.0565 28.3671 48.4399 26.0517Z" fill="#0C2742"/>
<path d="M54.7057 26.0517C61.0891 28.3677 73.7626 24.7551 74.7828 30.2085C74.9994 31.3625 74.4425 33.1224 73.8422 33.6277C73.7349 33.2616 73.1747 32.0626 71.4076 31.7945C63.773 30.6423 57.2157 40.5376 59.6843 46.9084C59.6705 46.8932 59.6577 46.8774 59.6441 46.8624C59.3194 46.5038 59.0388 46.183 58.8271 45.9338C58.6903 45.7728 58.5769 45.6411 58.5029 45.551L58.4189 45.4436L58.4085 45.4334L58.3994 45.4202L58.3935 45.4143L58.1806 45.1526L51.8439 45.1518C52.8287 38.8693 55.6067 33.7887 58.6691 31.1318C56.6731 30.1879 54.5846 27.6415 54.7057 26.0517Z" fill="#0C2742"/>
<path d="M34.69 32.9286C35.2635 33.0307 37.218 33.8734 38.0537 34.8997C36.7759 34.5058 34.5472 34.4801 32.9967 35.8383C32.9967 34.3865 34.2502 33.0948 34.69 32.9286Z" fill="#0C2742"/>
<path d="M67.9653 32.9247C68.405 33.0923 69.6586 34.3826 69.6586 35.8345C68.1094 34.4761 65.8789 34.5043 64.5996 34.8997C65.4375 33.8722 67.3879 33.0289 67.9653 32.9247Z" fill="#0C2742"/>
<path d="M22.0798 17.6941C24.3287 16.278 26.9879 10.767 28.7422 16.2746C25.4755 19.3093 27.3768 23.7769 31.5236 23.7779C31.5246 23.8076 31.5431 24.4339 31.5083 24.4848C26.5622 24.2418 24.8369 20.607 25.7386 17.6941C25.8993 17.1802 20.6629 17.1648 20.6623 20.441C20.6638 22.6364 23.7949 23.6779 23.7962 25.9559C23.7956 27.0155 22.6553 27.7942 22.3059 27.7948C23.1094 24.139 19.7733 26.0492 18.8732 26.7336C20.6608 21.8153 16.6405 21.8463 17.0343 19.5905C17.3098 18.0159 20.8112 18.4926 22.0798 17.6941Z" fill="#0C2742"/>
<path d="M73.622 16.2746C75.3749 10.7676 78.0351 16.2789 80.2824 17.6941C81.5519 18.4906 85.0513 18.016 85.328 19.5905C85.7232 21.8462 81.6972 21.8164 83.4852 26.7336C82.5811 26.0481 79.2519 24.1413 80.0563 27.7948C79.7047 27.793 78.5647 27.0147 78.5641 25.9559C78.5654 23.6779 81.6946 22.6364 81.6961 20.441C81.6955 17.1648 76.4591 17.1802 76.6198 17.6941C77.5232 20.6074 75.7997 24.2412 70.852 24.4848C70.8145 24.4319 70.8357 23.807 70.8367 23.7779C74.9862 23.7771 76.8888 19.3094 73.622 16.2746Z" fill="#0C2742"/>
<path d="M54.3035 9.02806C57.1301 9.02868 59.588 10.6781 58.0752 14.5583C57.6554 15.6312 55.9993 18.2696 55.9758 18.3071C56.6125 21.6386 59.5122 23.1938 61.7838 23.5059C61.4916 23.0603 61.1837 22.5493 61.0539 22.2033C60.8116 21.5525 60.7019 20.9832 60.7015 20.4965C60.7015 18.2646 62.8148 18.2326 63.4311 18.2228C63.8445 20.0127 64.9944 20.7699 65.6762 21.0655C66.3177 20.7522 67.4582 19.9543 67.8733 18.2304C68.4689 18.229 70.6145 18.2564 70.6145 20.4965C70.6135 22.0518 69.759 23.5775 68.8599 24.4771H62.4561C57.0711 24.4765 54.6493 21.1722 53.9165 18.3071H48.4342C47.7015 21.1719 45.2792 24.4758 39.8965 24.4771H33.487C32.5877 23.5776 31.7334 22.0519 31.7324 20.4965C31.7324 18.2561 33.8807 18.229 34.4774 18.2304C34.8921 19.9529 36.0308 20.7517 36.6726 21.0655C37.3525 20.7704 38.5058 20.014 38.9196 18.2228C39.5381 18.2327 41.6493 18.2666 41.6493 20.4965C41.6488 20.9833 41.5396 21.5523 41.2968 22.2033C41.1676 22.5492 40.8592 23.0601 40.567 23.5059C42.8387 23.1933 45.7387 21.638 46.3769 18.3071C46.3638 18.2863 44.6924 15.6341 44.2717 14.5583C42.7604 10.678 45.2185 9.02848 48.0453 9.02806C48.4398 10.8667 49.7322 12.1957 51.1715 12.84C52.612 12.1958 53.9088 10.8666 54.3035 9.02806Z" fill="#0C2742"/>
<path d="M36.6918 15.8072C37.4759 15.8072 37.9096 16.5045 37.9101 16.8206C37.9094 18.0725 37.1094 18.9778 36.6918 19.2476C36.3011 18.9769 35.4799 18.0712 35.4792 16.8206C35.4797 16.5047 35.91 15.8081 36.6918 15.8072Z" fill="#0C2742"/>
<path d="M65.6532 15.8072C66.436 15.8072 66.871 16.5045 66.8715 16.8206C66.8708 18.0729 66.0435 18.9782 65.6532 19.2476C65.2352 18.9762 64.4413 18.0704 64.4406 16.8206C64.4411 16.5048 64.8711 15.8089 65.6532 15.8072Z" fill="#0C2742"/>
<path d="M37.2799 12.2903L38.3372 12.1753V13.5047L37.2799 13.3879L37.3871 14.656H35.9926L36.1018 13.3879L35.0463 13.5047V12.1753L36.1018 12.2903L35.9926 11.0241H37.3871L37.2799 12.2903Z" fill="#0C2742"/>
<path d="M66.2451 12.2903L67.3063 12.1753V13.5047L66.2451 13.3879L66.3562 14.656H64.9598L65.0709 13.3879L64.0154 13.5047V12.1753L65.0709 12.2903L64.9598 11.0241H66.3562L66.2451 12.2903Z" fill="#0C2742"/>
<path d="M51.1754 6.04361C52.2855 6.04498 52.898 7.02986 52.8994 7.47837C52.8994 9.25667 51.7292 10.5482 51.1754 10.9321C50.583 10.5486 49.4475 9.25718 49.4475 7.47837C49.4489 7.02964 50.0638 6.044 51.1754 6.04361Z" fill="#0C2742"/>
<path d="M51.9588 1.54203L53.3208 1.39453V3.14919L51.9588 2.99786L52.1006 4.61076H50.2559L50.3957 2.99786L49.0318 3.14919V1.39453L50.3957 1.54203L50.2559 0H52.1006L51.9588 1.54203Z" fill="#0C2742"/>
<path d="M46.3515 65.084H57.2619V67.266H46.3515V65.084Z" fill="#0C2742"/>
<path d="M49.261 67.9934V75.5008H47.8063V67.9934H49.261Z" fill="#0C2742"/>
<path d="M51.4429 67.9934V75.5008H49.9882L49.9882 67.9934H51.4429Z" fill="#0C2742"/>
<path d="M53.6252 67.9934L53.6252 75.5008H52.1705V67.9934H53.6252Z" fill="#0C2742"/>
<path d="M55.8074 67.9934V75.5008H54.3526L54.3526 67.9934H55.8074Z" fill="#0C2742"/>
<path d="M47.0789 67.266H56.5346V67.9934H47.0789V67.266Z" fill="#0C2742"/>
<path d="M46.3515 65.084H57.2619V67.266H46.3515V65.084Z" fill="#0C2742"/>
<path d="M47.0789 67.266H56.5346V67.9934H47.0789V67.266Z" fill="#0C2742"/>
<path d="M46.3515 65.084H57.2619V67.266H46.3515V65.084Z" fill="#0C2742"/>
<path d="M47.0789 67.266H56.5346V67.9934H47.0789V67.266Z" fill="#0C2742"/>
<path d="M46.3515 65.084H57.2619V67.266H46.3515V65.084Z" fill="#0C2742"/>
<path d="M47.0789 67.266H56.5346V67.9934H47.0789V67.266Z" fill="#0C2742"/>
<path d="M57.2624 78.4103H46.3519V76.2282H57.2624V78.4103Z" fill="#0C2742"/>
<path d="M56.535 76.2282H47.0793V75.5008H56.535V76.2282Z" fill="#0C2742"/>
<path d="M57.2624 78.4103H46.3519V76.2282H57.2624V78.4103Z" fill="#0C2742"/>
<path d="M56.535 76.2282H47.0793V75.5008H56.535V76.2282Z" fill="#0C2742"/>
<path d="M57.2624 78.4103H46.3519V76.2282H57.2624V78.4103Z" fill="#0C2742"/>
<path d="M56.535 76.2282H47.0793V75.5008H56.535V76.2282Z" fill="#0C2742"/>
<path d="M57.2624 78.4103H46.3519V76.2282H57.2624V78.4103Z" fill="#0C2742"/>
<path d="M56.535 76.2282H47.0793V75.5008H56.535V76.2282Z" fill="#0C2742"/>
<path d="M49.8037 58.9085C49.8037 61.1961 50.5764 63.3958 51.5296 63.3958C52.4828 63.3958 53.2555 61.1961 53.2555 58.9085C53.2555 56.6208 52.4828 54.7663 51.5296 54.7663C50.5764 54.7663 49.8037 56.6208 49.8037 58.9085Z" fill="#0C2742"/>
<path d="M53.9589 54.7285C55.8649 54.7288 57.4106 56.2743 57.4107 58.1803C57.4107 60.0865 55.8649 63.3573 53.9589 63.3581C53.6695 63.3581 53.3884 63.2819 53.1198 63.1474C53.9635 62.1797 54.5278 60.5118 54.5278 58.7991C54.5276 57.1393 54.0008 55.6764 53.2003 54.8147C53.4443 54.76 53.6983 54.7285 53.9589 54.7285Z" fill="#0C2742"/>
<path d="M49.1107 54.7656C49.3571 54.7657 49.5972 54.7931 49.829 54.8422C49.0429 55.7076 48.5284 57.1576 48.5283 58.7998C48.5283 60.5298 49.1032 62.2138 49.9612 63.1768C49.6888 63.3155 49.4046 63.395 49.1107 63.3952C47.2043 63.3952 45.6588 60.1238 45.6588 58.2174C45.6591 56.3113 47.2044 54.7656 49.1107 54.7656Z" fill="#0C2742"/>
<path d="M46.8486 62.5332L56.2402 62.5332V63.3961L46.8486 63.396V62.5332Z" fill="#0C2742"/>
<path d="M52.105 51.2764H53.2545V52.4292H52.105V53.5787H50.9521V52.4292H49.8027V51.2764H50.9521V50.1269H52.105V51.2764Z" fill="#0C2742"/>
</svg>
