<svg width="102" height="102" viewBox="0 0 102 102" fill="none" xmlns="http://www.w3.org/2000/svg">
<path d="M51.3083 5.88452C72.3127 5.88452 89.34 22.9119 89.34 43.9162C89.34 57.458 79.6261 69.8469 69.2539 78.4905L50.238 96.1153V67.9427C50.5929 67.9582 50.9496 67.9697 51.3083 67.9697C64.5923 67.9697 75.3618 57.2002 75.3618 43.9162C75.3618 30.6323 64.5923 19.8628 51.3083 19.8628C50.9497 19.8628 50.5928 19.8709 50.238 19.8864V5.91153C50.5937 5.9017 50.9503 5.88452 51.3083 5.88452Z" fill="url(#paint0_radial_939_14313)"/>
<path d="M40.6153 22.3715C32.6984 26.3083 27.2549 34.4744 27.2549 43.9162C27.2549 53.3575 32.6991 61.5205 40.6153 65.4576V80.4117C24.8183 75.7909 13.2766 61.2067 13.2766 43.9162C13.2766 26.6254 24.8179 12.0379 40.6153 7.4174V22.3715Z" fill="#0C2742"/>
<defs>
<radialGradient id="paint0_radial_939_14313" cx="0" cy="0" r="1" gradientTransform="matrix(3.36279 88.1644 -74.3215 0.749149 87.258 41.9106)" gradientUnits="userSpaceOnUse">
<stop stop-color="#969FA8"/>
<stop offset="0.663462" stop-color="#0C2742"/>
</radialGradient>
</defs>
</svg>
