<svg width="102" height="102" viewBox="0 0 102 102" fill="none" xmlns="http://www.w3.org/2000/svg">
<path fill-rule="evenodd" clip-rule="evenodd" d="M55.0375 83.4903L53.319 85.2507C53.6906 85.5106 54.1293 85.6503 54.5904 85.6475C55.8898 85.6447 56.8678 84.4683 56.8147 83.141C56.7588 81.6376 55.5461 80.3633 54.0651 80.3633C52.9724 80.3633 52.0279 81.0619 51.5836 82.0344C51.6982 82.4172 51.7625 82.8308 51.7625 83.2555C51.7723 83.5046 51.6806 83.747 51.5083 83.9272C51.3361 84.1074 51.098 84.2099 50.8487 84.2112C50.5989 84.2107 50.3602 84.1085 50.1873 83.9282C50.0144 83.748 49.9223 83.5051 49.9322 83.2555C49.9322 82.8308 49.9964 82.4172 50.111 82.0344C49.6667 81.0591 48.7222 80.3633 47.6296 80.3633C46.1486 80.3633 44.9386 81.6376 44.8799 83.141C44.8268 84.4683 45.8021 85.6447 47.1042 85.6475C47.5604 85.6515 48.0063 85.5117 48.3785 85.2479L46.6571 83.4903C46.9121 83.2257 47.2636 83.0763 47.631 83.0763C47.9983 83.0763 48.3499 83.2257 48.6048 83.4903L50.8487 85.8543L53.0898 83.4903C53.3447 83.2257 53.6963 83.0763 54.0637 83.0763C54.431 83.0763 54.7826 83.2257 55.0375 83.4903ZM53.3721 75.3837C53.3796 75.134 53.2875 74.8914 53.1161 74.7096C52.9447 74.5277 52.7081 74.4214 52.4583 74.4141C52.2085 74.4214 51.9718 74.5277 51.8005 74.7096C51.6291 74.8914 51.537 75.134 51.5445 75.3837H51.5361V76.9318H52.9417C53.1373 76.5462 53.3721 75.8309 53.3721 75.3837Z" fill="#0C2742"/>
<path fill-rule="evenodd" clip-rule="evenodd" d="M55.5238 90.2276C55.7509 90.4643 56.1136 90.5076 56.39 90.331C56.7589 90.0851 56.689 89.4647 56.3928 89.1685C56.1269 88.9042 55.6975 88.9042 55.4316 89.1685C54.8224 88.5537 55.331 87.503 56.186 87.6176C56.6554 87.6835 57.0872 87.9107 57.4072 88.2603C58.1324 89.0653 58.1179 90.2923 57.3737 91.0799C56.9949 91.4742 56.4729 91.6987 55.9261 91.7024C55.3793 91.7061 54.8543 91.4886 54.4703 91.0994L50.9102 87.4667L47.353 91.0994C46.9694 91.4893 46.4442 91.7073 45.8972 91.7037C45.3502 91.7 44.828 91.4749 44.4496 91.0799C43.7037 90.2919 43.6891 89.0629 44.4161 88.2575C44.7354 87.909 45.1662 87.6827 45.6344 87.6176C46.4923 87.503 47.0037 88.5537 46.3917 89.1685C46.1267 88.9045 45.6982 88.9045 45.4332 89.1685C45.1342 89.4675 45.0644 90.0851 45.436 90.331C45.7119 90.5061 46.0728 90.4628 46.2995 90.2276L50.0021 86.5529L49.3873 85.9857C48.7669 86.4607 48.0181 86.7206 47.2272 86.7206C45.2509 86.7129 43.6542 85.1061 43.6588 83.1298C43.6588 80.8719 45.4863 79.0304 47.7358 79.0304C49.0129 79.0304 50.343 79.852 50.9102 80.8272C51.4803 79.8492 52.8104 79.0304 54.0875 79.0304C56.3369 79.0304 58.1673 80.8719 58.1673 83.1298C58.1673 85.1138 56.5633 86.7206 54.596 86.7206C53.8052 86.7206 53.0563 86.4635 52.436 85.9857L51.8212 86.5529L55.5238 90.2276ZM50.2368 94.7405H51.5949V90.4371H50.2368V94.7405ZM49.3258 73.0672C49.9071 73.0672 50.248 73.3327 50.248 73.3327V72.4748L49.5801 72.5279V71.1587L50.2927 71.2117L50.2452 70.4908H51.5837L51.5362 71.2117L52.2488 71.1587V72.5279L51.5837 72.4748V73.3327C51.5837 73.3327 51.9246 73.0672 52.503 73.0672C53.7549 73.0672 54.7721 74.09 54.7721 75.3474C54.7721 76.4345 54.026 77.6053 53.9421 77.7339L53.741 78.0412H48.0851L47.8839 77.7339C47.8001 77.6053 47.0568 76.4345 47.0568 75.3474C47.0568 74.09 48.0711 73.0672 49.323 73.0672H49.3258ZM50.913 67.5455C44.5754 67.5483 39.4337 72.7179 39.4337 79.0947V91.703L50.913 97.873L62.398 91.703V79.0919C62.398 72.7151 57.2535 67.5455 50.913 67.5427V67.5455Z" fill="#0C2742"/>
<path fill-rule="evenodd" clip-rule="evenodd" d="M50.3879 76.932V75.3839H50.3767C50.3767 74.853 49.9687 74.4142 49.4629 74.4142C48.9599 74.4142 48.552 74.853 48.552 75.3839C48.552 75.831 48.7839 76.5436 48.9767 76.932H50.3879ZM81.8555 73.7268C84.4941 69.4178 86.6441 64.8281 88.2658 60.0427C86.687 58.4415 85.5636 56.8655 84.8511 55.1917C84.6135 55.1917 77.5325 69.4346 81.8555 73.7268ZM78.7621 70.5245C73.5645 74.5959 64.8516 80.7044 64.8516 89.9734C68.3167 87.5423 72.117 84.4964 75.8978 80.7519C77.4906 79.1619 79.2064 77.0018 80.6902 74.7719L80.4667 74.5484C79.4355 73.5256 78.9242 72.1173 78.7621 70.5245ZM78.8515 15.8355V17.1936C81.9952 17.1936 82.8614 22.0139 86.9552 22.0139C88.7604 22.0139 90.7919 20.5049 90.7919 17.7804H89.4227C89.4227 17.7804 89.3165 19.3229 87.3716 19.3229C83.9065 19.3229 83.2415 15.8355 78.8543 15.8355M54.5208 38.375C54.5208 36.2904 52.8218 34.5998 50.7316 34.5998C48.6442 34.5998 46.9452 36.2904 46.9452 38.3722C46.9452 40.4642 48.641 42.16 50.733 42.16C52.8249 42.16 54.5208 40.4642 54.5208 38.3722M17.0732 55.1917C16.3606 56.8655 15.2401 58.4415 13.6584 60.0427C15.3099 64.891 17.5426 69.661 20.0688 73.7268C24.3917 69.4346 17.3079 55.1917 17.0732 55.1917Z" fill="#0C2742"/>
<path fill-rule="evenodd" clip-rule="evenodd" d="M22.7027 70.5243C22.5378 72.1171 22.0264 73.5255 20.9981 74.5483L20.7746 74.7718C22.2556 77.0017 23.9713 79.1618 25.5669 80.7518C28.9818 84.1322 32.6771 87.2171 36.6132 89.9733C36.6132 80.7043 27.9003 74.5958 22.7027 70.5243ZM46.9887 49.9297C47.8466 49.1584 48.5424 48.5018 49.336 47.7277C50.4106 47.9213 51.5112 47.9213 52.5859 47.7277C53.3767 48.5018 54.0725 49.1584 54.9304 49.9297C55.587 49.695 56.2158 49.4044 56.8138 49.0662C55.317 47.7102 53.8524 46.3191 52.421 44.8942C51.4598 45.1201 50.4593 45.1201 49.4981 44.8942C48.0672 46.3186 46.6035 47.7097 45.1081 49.0662C45.7061 49.4044 46.3348 49.695 46.9887 49.9297ZM14.4481 22.0193C18.472 22.0193 19.3215 17.2577 22.4121 17.2577V15.9164C18.0975 15.9164 17.4437 19.3619 14.0373 19.3619C12.1259 19.3619 12.0197 17.8361 12.0197 17.8361H10.6729C10.6729 20.5271 12.6708 22.0193 14.4453 22.0193M81.1473 59.1959C80.0578 58.0109 79.1653 56.659 78.5038 55.1915L78.4871 55.2279C76.1957 60.0342 74.6308 64.3348 75.0052 71.8964C75.7122 71.3207 78.8755 68.8058 78.8755 68.8058C78.9789 65.6034 80.0882 61.9735 81.1473 59.1959ZM26.6875 71.8964C27.0591 64.3348 25.4943 60.037 23.2029 55.2251L23.1861 55.1915C22.5881 56.5664 21.7163 57.8797 20.5454 59.1987C21.6045 61.9763 22.7111 65.5978 22.8145 68.8058C22.8145 68.8058 25.9805 71.3179 26.6875 71.8964Z" fill="#0C2742"/>
<path fill-rule="evenodd" clip-rule="evenodd" d="M21.6499 8.77951H25.8359C24.1872 10.4338 22.3374 10.8362 21.6499 10.1488V8.77951ZM79.7508 8.77951V10.1488C79.0606 10.8362 77.2135 10.4338 75.5621 8.77951H79.7508ZM80.4327 30.6232C77.196 30.6377 74.0914 31.9081 71.7729 34.1665L70.3505 33.155C71.9293 32.3725 73.606 30.7965 74.1313 29.662L73.1673 28.6951C71.9461 29.9163 68.8974 29.9051 68.8974 26.7893C68.8974 20.2086 79.097 19.2221 79.097 22.078H80.4606C80.4606 16.6345 76.364 18.3279 76.364 18.3279L75.3972 17.3639C81.285 11.4621 85.2558 14.7595 85.2558 17.8166H86.6194C87.4242 17.0062 89.7268 12.8146 87.1504 10.2326C85.6638 8.7348 83.5372 8.77951 81.1145 8.77951C81.1145 8.77951 81.1033 5.88452 77.9037 5.88452C72.6028 5.88452 67.5338 10.0929 63.8256 6.37074L62.8616 7.3376C62.8616 7.3376 64.0492 11.0038 67.0811 11.0038V12.3731C65.9633 12.3731 59.0808 15.3184 59.0808 22.078H57.7227V12.3759H59.0808V8.77951C53.4277 8.77951 50.6976 12.3759 50.6976 12.3759C50.6976 12.3759 47.9675 8.77951 42.3144 8.77951V12.3759H43.6781V22.078H42.3144C42.3144 15.3156 35.4346 12.3759 34.3197 12.3759V11.0066C37.3488 11.0066 38.5364 7.3376 38.5364 7.3376L37.5751 6.37074C33.8614 10.0929 28.7952 5.88452 23.4914 5.88452C20.2947 5.88452 20.2863 8.77951 20.2863 8.77951C17.8552 8.77951 15.737 8.7348 14.2476 10.2326C11.6712 12.8118 13.9765 17.009 14.7785 17.8166H16.1422C16.1422 14.7595 20.113 11.4621 25.998 17.3639L25.0367 18.3279C25.0367 18.3279 20.9374 16.6373 20.9374 22.078H22.2982C22.2982 19.2221 32.5033 20.2058 32.5033 26.7893C32.5033 29.9051 29.4519 29.9191 28.2307 28.6951L27.2667 29.6592C27.792 30.7965 29.4686 32.3697 31.0475 33.155L29.6251 34.1665C27.3064 31.9083 24.2019 30.638 20.9653 30.6232C10.6317 30.6232 8.87678 45.0479 13.0628 58.4525C15.4939 55.7839 16.5474 53.1795 16.5474 49.9101V44.3381C17.2991 44.3381 17.9082 44.9501 17.9082 45.7073V49.9101C17.9082 51.0223 17.7965 52.0618 17.5645 53.0566C18.0759 54.124 19.3026 56.7563 19.7497 57.7987C21.7785 55.3536 22.6699 52.9141 22.6699 49.9101V46.1656C23.4244 46.1656 24.0307 46.7804 24.0307 47.5349V49.9101C24.0307 50.9887 23.8351 52.3692 23.6116 53.3723L24.2347 54.6745C24.7601 55.7699 25.2603 56.8542 25.7158 57.9803C27.8507 55.4737 28.7952 52.9895 28.7952 49.9101V47.9987C29.5469 47.9987 30.156 48.6079 30.156 49.368V49.9101C30.156 53.5763 28.9768 56.4713 26.2607 59.4278C26.4255 59.8861 26.5792 60.3527 26.719 60.8362L40.3444 46.786C39.4633 45.6903 38.7607 44.4625 38.2626 43.1477C38.1445 42.8294 38.1898 42.4736 38.3837 42.195C38.5776 41.9164 38.8956 41.7504 39.235 41.7505C39.6578 43.2188 40.3599 44.5917 41.3029 45.794L45.1647 41.8176C44.0765 40.021 43.9252 37.8088 44.7588 35.8809C45.5923 33.9529 47.3076 32.5477 49.3619 32.1098L48.3978 30.1761V17.593H52.9974V30.1761L52.0361 32.1098C54.0924 32.5447 55.8102 33.9494 56.6448 35.8783C57.4793 37.8073 57.327 40.0211 56.2361 41.8176L74.6874 60.8445C74.8264 60.3701 74.9783 59.8995 75.1429 59.4334C72.424 56.4769 71.2419 53.5819 71.2419 49.9101V49.3652C71.2419 48.6107 71.8511 47.9959 72.6056 47.9959V49.9101C72.6056 52.9895 73.5473 55.4793 75.6878 57.9887C76.1461 56.8597 76.6491 55.7699 77.1744 54.6745L77.7892 53.3891C77.5656 52.3831 77.37 50.9915 77.37 49.9101V47.5349C77.37 46.7804 77.9764 46.1656 78.7281 46.1656V49.9101C78.7281 52.9141 79.6167 55.3536 81.6454 57.7987C82.3544 56.2086 83.0838 54.6278 83.8334 53.0566C83.5991 52.0243 83.4838 50.9686 83.4897 49.9101V45.7045C83.4897 44.9501 84.0989 44.3353 84.8506 44.3353V49.9101C84.8506 53.1795 85.9041 55.7839 88.3352 58.4525C92.5212 45.0479 90.7663 30.6232 80.4327 30.6232Z" fill="#0C2742"/>
<path fill-rule="evenodd" clip-rule="evenodd" d="M27.2023 62.2643C27.3113 62.7114 27.4146 63.178 27.5041 63.6531C33.1333 60.5119 38.4687 56.871 43.4461 52.7745C45.7306 53.9652 48.2694 54.5855 50.8456 54.5825C53.5059 54.5825 56.0292 53.9286 58.2423 52.7745C63.2208 56.8751 68.5593 60.5179 74.1927 63.6587C74.2821 63.1808 74.3827 62.7197 74.4917 62.2699C72.6474 61.1633 65.7006 56.8432 57.7533 49.9298C55.6724 51.1975 53.2822 51.8666 50.8456 51.8635C48.4081 51.8667 46.0169 51.1976 43.9351 49.9298C35.999 56.832 29.0605 61.1493 27.2023 62.2643Z" fill="#0C2742"/>
<path fill-rule="evenodd" clip-rule="evenodd" d="M57.0038 60.4535V57.8547H62.7826C62.1634 57.4317 61.5486 57.0023 60.9383 56.5665H40.7545C40.1285 57.0136 39.5138 57.4439 38.9102 57.8575H44.7002V60.4563C45.4546 60.4563 46.0666 59.8778 46.0666 59.1625V57.8575H55.6346V59.1625C55.6346 59.8778 56.2494 60.4563 57.0038 60.4563M73.3454 73.0478V73.0366H66.298C65.7395 71.5672 64.9806 70.1821 64.0429 68.9205H71.9203V70.3093C71.9203 71.0638 72.5267 71.6785 73.2756 71.6785V67.5428H62.9084C61.2908 65.7797 59.3199 64.3772 57.124 63.4267H64.7722V64.8183C64.7722 65.5728 65.3814 66.1904 66.1331 66.1904V63.4267H70.6405C69.8945 62.9792 69.154 62.5227 68.4189 62.0575H32.5753C31.7761 62.5604 31.0356 63.0187 30.3538 63.4267H34.8723V66.1931C35.6259 66.187 36.2322 65.5719 36.2276 64.8183V63.4267H43.8618C41.6691 64.3796 39.7012 65.783 38.0858 67.5456H27.7159V71.6813C28.4704 71.6813 29.0767 71.0666 29.0767 70.3093V68.9205H36.9513C36.0128 70.1816 35.2539 71.5668 34.6963 73.0366H27.6628V73.0562C28.1714 73.4893 28.6855 73.942 29.1941 74.4087H34.2352C33.7988 75.943 33.5768 77.5304 33.5757 79.1256C33.8831 79.5308 34.1765 79.9443 34.4559 80.3635H36.2946V79.134C36.2946 71.2314 42.6658 64.7988 50.4957 64.7904C58.3312 64.7988 64.6996 71.2314 64.6996 79.1312V80.3607H66.5383C66.8205 79.9415 67.1139 79.5308 67.4185 79.1284C67.4185 77.4909 67.1838 75.9092 66.7563 74.4087H71.7973C72.3143 73.9392 72.8313 73.4865 73.3426 73.0478" fill="#0C2742"/>
</svg>
