<svg width="102" height="102" viewBox="0 0 102 102" fill="none" xmlns="http://www.w3.org/2000/svg">
<path fill-rule="evenodd" clip-rule="evenodd" d="M42.2891 51.6521H33.5746C33.4899 51.6521 33.4428 51.6993 33.3956 51.784C33.1695 55.7409 32.4159 59.9615 31.3513 63.4284C31.3513 63.4755 31.3513 63.5132 31.3984 63.5603C31.4455 63.6074 31.4832 63.6074 31.5303 63.6074H34.5073C34.5921 63.6074 34.6392 63.5603 34.6392 63.5227C35.4871 60.8565 36.1466 57.3896 36.4198 54.4502H39.265V63.4755C39.265 63.5603 39.3497 63.6545 39.444 63.6545H42.2891C42.3739 63.6545 42.4681 63.5698 42.4681 63.4755V51.784C42.4587 51.6993 42.3739 51.6521 42.2891 51.6521ZM79.1442 51.6521H76.2991C76.2143 51.6521 76.1201 51.7369 76.1201 51.8311V60.8565C75.4983 61.0355 74.8765 61.1203 74.1605 61.1203C72.2951 61.1203 71.8523 60.5456 71.8523 58.049V51.8217C71.8523 51.7369 71.7675 51.6427 71.6733 51.6427H68.8753C68.7905 51.6427 68.6963 51.7275 68.6963 51.8217V58.3599C68.6963 62.4487 70.0718 64.0031 73.5858 64.0031C75.583 64.0031 77.8535 63.4661 79.1913 62.9762C79.2384 62.9291 79.2761 62.8914 79.2761 62.8443V51.8217C79.3232 51.6993 79.229 51.6521 79.1442 51.6521ZM18.859 51.6521H15.9667C15.8819 51.6521 15.8348 51.6993 15.8348 51.784C15.392 53.5646 14.4594 56.5888 13.2158 59.7448L10.3235 51.784C10.2764 51.7369 10.2387 51.6993 10.1916 51.6993H7.25227C7.20516 51.6993 7.16748 51.7464 7.12037 51.784C7.07327 51.8311 7.07327 51.8688 7.12037 51.9159L11.4729 63.8335C11.0301 64.7662 10.625 65.5199 10.2293 66.2359C9.91842 66.7729 9.65463 67.3005 9.38142 67.8375C9.33432 67.8846 9.33432 67.9223 9.38142 67.9694C9.42853 68.0165 9.46621 68.0542 9.51332 68.0542H12.6694C12.7165 68.0542 12.8013 68.0071 12.8013 67.9694C13.3383 66.9425 13.9977 65.5199 14.6195 64.0597C16.4849 59.7071 17.9546 55.609 19.0662 51.8783C19.0662 51.8311 19.0662 51.7935 19.0191 51.7464C18.9438 51.6521 18.8967 51.6521 18.859 51.6521ZM29.2127 60.8565C29.2127 60.8094 29.1656 60.7717 29.1279 60.7717H28.996C28.28 61.0355 26.9988 61.2145 26.1038 61.2145C24.1065 61.2145 23.1738 60.6775 23.1738 57.6533C23.1738 55.2039 23.4847 54.0922 26.1038 54.0922C26.8574 54.0922 27.5263 54.177 28.4119 54.4502C28.4967 54.4502 28.5438 54.4502 28.5909 54.3654C28.9018 53.7436 29.3069 52.9899 29.7497 52.0573V51.9159C29.7497 51.8688 29.7026 51.8311 29.6649 51.8311C28.5061 51.4732 27.1306 51.2565 25.8871 51.2565C21.7513 51.2565 19.8859 53.216 19.8859 57.6157C19.8859 62.0624 21.7513 64.0597 25.8871 64.0597C26.914 64.0597 28.996 63.8335 29.9758 63.4379C30.0606 63.3908 30.1077 63.306 30.0606 63.2118L29.2127 60.8565ZM56.2888 51.6521H53.3965C53.3117 51.6521 53.2646 51.6993 53.2646 51.784C52.8218 53.6023 51.8891 56.5888 50.6456 59.7448L47.7533 51.784C47.7062 51.7369 47.6685 51.6993 47.6214 51.6993H44.6915C44.6444 51.6993 44.6067 51.7464 44.5596 51.784C44.5125 51.8311 44.5125 51.8688 44.5596 51.9159L48.9121 63.8335C48.4693 64.7662 48.0642 65.5199 47.6685 66.2359C47.3576 66.7729 47.0938 67.3005 46.8206 67.8846C46.7735 67.9317 46.7735 67.9694 46.8206 68.0165C46.8677 68.0636 46.9054 68.1013 46.9525 68.1013H50.1086C50.1557 68.1013 50.2405 68.0542 50.2405 68.0165C50.7775 66.9896 51.4369 65.567 52.0587 64.1068C53.877 59.7542 55.3938 55.6561 56.5055 51.9254C56.5055 51.8782 56.5055 51.8406 56.4583 51.7935C56.383 51.6521 56.3359 51.6521 56.2888 51.6521ZM66.9628 51.6521H58.5592C58.4744 51.6521 58.3802 51.7369 58.3802 51.8311V63.5227C58.3802 63.6074 58.465 63.7017 58.5592 63.7017H61.4044C61.4892 63.7017 61.5834 63.6169 61.5834 63.5227V54.4973H65.983C66.0301 54.4973 66.1149 54.4502 66.1149 54.4125C66.4729 53.6117 66.7838 52.7638 67.1418 51.9254V51.7935C67.0476 51.6521 67.0005 51.6521 66.9628 51.6521Z" fill="#0C2742"/>
<path fill-rule="evenodd" clip-rule="evenodd" d="M22.2316 33.6861C18.1428 33.6861 16.5413 35.4667 16.5413 39.9511C16.5413 44.5297 18.1428 46.3103 22.2316 46.3103C26.3674 46.3103 27.969 44.5297 27.969 39.9511C27.969 35.429 26.3674 33.6861 22.2316 33.6861ZM22.2316 43.6912C20.3662 43.6912 19.7821 43.2013 19.7821 39.9982C19.7821 36.616 20.4039 36.3051 22.2316 36.3051C24.0969 36.3051 24.7187 36.616 24.7187 39.9982C24.7281 43.2013 24.144 43.6912 22.2316 43.6912ZM39.3496 43.2013C39.3496 43.1542 39.3025 43.1166 39.2648 43.1166H39.1329C38.4169 43.3803 37.1357 43.5593 36.2407 43.5593C34.2434 43.5593 33.3107 43.0223 33.3107 39.9982C33.3107 37.5487 33.6216 36.437 36.2407 36.437C36.9943 36.437 37.6632 36.5218 38.5488 36.795C38.6336 36.795 38.6807 36.795 38.7278 36.7102C39.0387 36.0885 39.4438 35.3348 39.8866 34.4021V34.2702C39.8866 34.2231 39.8395 34.1854 39.8018 34.1854C38.643 33.8274 37.2675 33.6107 36.024 33.6107C31.8881 33.6107 30.0228 35.5703 30.0228 39.9699C30.0228 44.4167 31.8881 46.4139 36.024 46.4139C37.0509 46.4139 39.1329 46.1878 40.1127 45.7921C40.1975 45.745 40.2446 45.6602 40.1975 45.566L39.3496 43.2013ZM15.6557 34.0064H7.25212C7.16733 34.0064 7.07312 34.0912 7.07312 34.1854V45.8769C7.07312 45.9617 7.15791 46.0559 7.25212 46.0559H10.0973C10.1821 46.0559 10.2763 45.9711 10.2763 45.8769V36.8045H14.6288C14.6759 36.8045 14.7607 36.7574 14.7607 36.7197C15.1187 35.9189 15.4296 35.071 15.7876 34.2325V34.1006C15.7405 34.0441 15.7028 34.0064 15.6557 34.0064Z" fill="#919AA4"/>
<path d="M93.3282 62.6538V62.4748C93.3282 62.39 93.3282 62.2487 93.3753 62.1639C93.5072 60.5153 93.6014 58.518 93.6862 56.2098V56.0309C93.7333 54.4764 93.771 52.7806 93.771 51.0471C93.771 49.3137 93.7239 47.6273 93.6862 46.0634V45.8844C93.6014 43.6139 93.5072 41.5696 93.3753 39.9303C93.3753 39.8455 93.3753 39.7042 93.3282 39.6194V39.4404C93.3282 39.2614 93.2811 39.1295 93.2811 38.9505V38.7809C93.1492 37.0475 93.055 35.9829 93.0173 35.8887C93.0173 35.7097 92.9702 35.5307 92.9702 35.3988V35.2669C92.9231 34.956 92.8854 34.6922 92.7912 34.3813C92.7912 34.3342 92.7912 34.2965 92.7441 34.2494C91.9904 30.6506 89.9837 26.6937 87.4966 23.7167C86.5168 22.5579 85.4993 21.5404 84.4253 20.7396C84.3405 20.6549 83.0875 19.7599 81.1374 18.3844C78.8669 16.8299 75.6261 14.6537 71.933 12.5151C65.3571 8.63361 59.535 5.92036 58.7342 5.60946C58.6871 5.60946 58.6871 5.56236 58.6871 5.56236C56.9536 4.80867 54.8621 4.27167 52.5916 4.05499C52.1489 4.00789 51.7061 3.9702 51.2539 3.9702C50.8111 3.9231 50.406 3.9231 50.0103 3.9231H49.3885C46.3643 4.00789 43.5663 4.54488 41.3429 5.57178C41.032 5.70367 35.1156 8.41693 28.4078 12.3738L28.1441 12.5057C21.2573 16.5473 15.8779 20.5512 15.6518 20.7302C13.9654 21.9738 12.4486 23.5754 11.0731 25.6197C10.7622 26.0625 10.7622 27.2213 12.1 27.2213H15.5199C16.9895 27.2213 17.3381 26.3357 18.9868 25.1299C20.8051 23.7921 24.4133 21.1259 30.9892 17.2162C35.7468 14.4181 40.1936 12.1948 42.3698 11.1679C42.4169 11.1679 42.4546 11.1208 42.5017 11.1208C42.5017 11.1208 42.5488 11.1208 42.5488 11.0737C42.5488 11.0737 42.5959 11.0737 42.5959 11.0266C42.643 11.0266 42.6807 10.9795 42.6807 10.9795C42.7278 10.9795 42.7655 10.9323 42.8126 10.9323C43.3496 10.6686 43.6982 10.5367 43.6982 10.5367C45.2056 9.86777 47.3441 9.42498 49.6146 9.37788H50.5002C51.1691 9.37788 51.838 9.42498 52.4598 9.50977C53.8352 9.68877 55.0788 9.95256 56.1057 10.3953C56.1905 10.4425 56.3318 10.4801 56.4166 10.5272C56.4166 10.5272 56.4637 10.5743 56.5956 10.612C57.6225 11.0548 63.1338 13.6833 69.135 17.1879C72.6961 19.2794 75.8522 21.3709 78.0284 22.8782C79.9409 24.216 81.0997 25.0545 81.1374 25.1016C81.9853 25.7234 82.8238 26.609 83.6245 27.5887C85.6218 30.1701 87.2705 33.6842 87.5343 36.388C87.5343 36.4351 87.6662 37.4997 87.7981 39.3179C87.7981 39.4498 87.7981 39.544 87.8452 39.6759V39.9397C87.8452 40.1187 87.8923 40.2506 87.8923 40.4296V40.6086C87.8923 40.6934 87.8923 40.8347 87.9394 40.9195C87.9394 41.1456 87.9865 41.3623 87.9865 41.5884C87.9865 41.7203 87.9865 41.8522 88.0336 41.9841V42.0689C88.0336 42.2479 88.0336 42.3798 88.0807 42.5588V42.9168C88.2126 45.2249 88.3068 47.9853 88.3068 50.8775C88.3068 53.7698 88.222 56.5207 88.0807 58.8383V59.1963C88.0807 59.3753 88.0807 59.5072 88.0336 59.6862V59.771C88.0336 59.9029 88.0336 60.0348 87.9865 60.1667C87.9865 60.3928 87.9394 60.6095 87.9394 60.8356C87.9394 60.9675 87.9394 61.0617 87.8923 61.1465V61.3255C87.8923 61.5045 87.8452 61.6364 87.8452 61.8154V62.0792C87.8452 62.2111 87.8452 62.3429 87.7981 62.4372C87.6662 64.2554 87.5343 65.3671 87.5343 65.3671C87.2705 68.0804 85.6218 71.5944 83.6245 74.1663C82.8238 75.1932 81.9759 76.0317 81.1374 76.6535C81.0903 76.6535 79.9409 77.5391 78.0284 78.8769C75.8522 80.3842 72.649 82.4757 69.135 84.5672C63.1338 88.1283 57.5754 90.7003 56.5956 91.1431L56.4166 91.2278C56.3318 91.2749 56.1905 91.3126 56.1057 91.3597C55.0788 91.7554 53.8352 92.0757 52.4598 92.2453C51.838 92.3301 51.1691 92.3772 50.5002 92.3772H49.6146C47.3441 92.3301 45.215 91.9344 43.6982 91.2184C43.6982 91.2184 43.3873 91.0865 42.8126 90.8227C42.7655 90.7756 42.6807 90.7756 42.6336 90.7379C42.5865 90.6908 42.5488 90.6908 42.5017 90.6532C42.4546 90.6532 42.4546 90.6061 42.4169 90.6061C42.3698 90.6061 42.3321 90.5589 42.285 90.5589C42.2379 90.5118 42.2002 90.5118 42.106 90.4742H42.0684C39.7979 89.5886 35.5301 87.45 30.9986 84.7839C24.3756 80.9118 20.8145 78.208 18.9962 76.8702C17.3475 75.6737 16.999 74.7787 15.5293 74.7787H12.1C10.7622 74.7787 10.7622 75.9375 11.0731 76.3803C12.4486 78.4246 13.9654 80.0262 15.6518 81.2698C15.8779 81.4488 21.295 85.4527 28.1441 89.4944C28.5021 89.7205 28.8601 89.9372 29.2557 90.1162C35.6149 93.7621 41.0791 96.2493 41.39 96.4283C43.5663 97.408 46.4114 97.9827 49.4356 98.0769H50.0574C50.4531 98.0769 50.8582 98.0769 51.2539 98.0298C51.6966 98.0298 52.1394 97.9827 52.5916 97.945C54.8621 97.7189 56.9913 97.1914 58.6871 96.4377C58.6871 96.4377 58.7342 96.4377 58.7342 96.3906C59.4878 96.0326 65.3571 93.3193 71.8953 89.5038C75.5884 87.3275 78.8292 85.189 81.0997 83.6345C83.0593 82.259 84.3029 81.364 84.3876 81.2792C85.4522 80.4784 86.4791 79.461 87.4589 78.3022C89.9461 75.3251 91.9527 71.3683 92.7064 67.7695C92.7064 67.7224 92.7064 67.6847 92.7535 67.6376C92.8006 67.3267 92.8854 67.0158 92.9325 66.752V66.6201C92.9796 66.4411 92.9796 66.2621 92.9796 66.1302C92.9796 66.0454 93.1115 64.9714 93.2434 63.2379V63.0589C93.3282 62.9647 93.3282 62.8328 93.3282 62.6538Z" fill="url(#paint0_linear_939_14309)"/>
<defs>
<linearGradient id="paint0_linear_939_14309" x1="50.4221" y1="3.9231" x2="50.4221" y2="98.0769" gradientUnits="userSpaceOnUse">
<stop offset="0.216346" stop-color="#919AA4"/>
<stop offset="0.682692" stop-color="#0C2742"/>
</linearGradient>
</defs>
</svg>
