<svg width="102" height="102" viewBox="0 0 102 102" fill="none" xmlns="http://www.w3.org/2000/svg">
<path fill-rule="evenodd" clip-rule="evenodd" d="M79.6257 15.6924C83.0078 15.6924 86.6822 17.7375 86.6826 21.1919V83.4712C86.6826 89.3654 83.5696 94.4911 75.6451 94.4911H63.2152C57.1463 94.4911 52.5763 97.5506 52.5763 100.919C52.5763 97.7912 48.36 94.696 42.2911 94.696H29.5314C26.4765 94.6959 19.0604 93.5991 19.0046 83.6121V21.9474C19.0048 18.493 21.1255 15.6927 24.5073 15.6924H79.6257ZM27.1418 18.631C24.074 18.6311 22.1497 21.1714 22.1497 24.305V80.2349C22.1497 88.4156 23.3943 90.6497 31.6986 90.6498H43.2722C48.7767 90.6499 52.6003 93.0963 52.6003 95.9332C52.6003 92.878 56.2172 90.6033 61.7219 90.6033H72.9962C82.1612 90.6033 83.5375 88.0268 83.5375 80.1085V23.62C83.5375 20.4863 80.2031 18.631 77.1353 18.631H27.1418Z" fill="#0C2742"/>
<path d="M76.3303 38.2505C75.3521 37.3128 74.0626 36.7966 72.7199 36.8224C71.546 36.8224 70.31 37.2096 69.0828 37.9408C68.8605 38.0612 68.736 38.3107 68.7716 38.5688C68.7893 38.6376 69.6697 44.866 68.9939 47.5329C68.487 49.5459 66.833 51.9031 63.8184 51.9031C63.1425 51.9031 62.4667 51.7912 61.8175 51.5934L61.7909 51.5848L64.0674 49.9933C64.343 49.804 64.4231 49.4255 64.2452 49.133C64.2008 49.0642 64.1385 49.0039 64.0674 48.9523L59.5499 45.7521C60.9727 44.6509 61.8798 43.8595 61.9954 43.7649C62.1288 43.653 62.2088 43.4896 62.2177 43.3089C62.2177 43.1369 62.1466 42.9648 62.0221 42.8444L61.2217 42.0099C61.1061 41.8981 60.955 41.8292 60.7949 41.8206C60.6526 41.8206 60.5192 41.8723 60.4125 41.9497C60.3591 41.9755 59.1675 42.9218 57.3623 44.2122L55.5483 42.9218L62.6446 37.9064L63.1959 39.3517C63.2848 39.5839 63.4982 39.7388 63.7383 39.7474H63.765C63.9873 39.7474 64.1919 39.6183 64.2986 39.4119L67.6778 33.0286C67.8378 32.7189 67.7311 32.3404 67.4377 32.1684C67.3487 32.1167 67.242 32.0909 67.1353 32.0909H67.0464L60.0568 33.1749C59.8167 33.2007 59.6211 33.3813 59.5499 33.6136C59.4966 33.8459 59.5677 34.0954 59.7278 34.2588L60.866 35.2912L52.8093 40.9776L44.7704 35.2825L45.8998 34.2502C46.0687 34.0868 46.1399 33.8287 46.0687 33.605C46.0154 33.3641 45.8197 33.1835 45.5796 33.1663L38.5901 32.0823H38.5011C38.2966 32.0823 38.1099 32.177 37.9943 32.349C37.8698 32.5469 37.852 32.805 37.9587 33.02L41.3201 39.4119C41.4357 39.6097 41.6402 39.7388 41.8625 39.7474H41.8981C42.1382 39.7302 42.3427 39.5753 42.4317 39.3517L42.9919 37.9064L50.0882 42.9218L48.2741 44.2122C46.4511 42.9218 45.2595 41.9755 45.2328 41.9497C45.1261 41.8723 44.9927 41.8206 44.8593 41.8206C44.6904 41.8206 44.5303 41.8895 44.4147 42.0099L43.5966 42.8444C43.481 42.9734 43.4187 43.1369 43.4187 43.3089C43.4276 43.481 43.5077 43.6444 43.6233 43.7649C43.7567 43.8681 44.6459 44.6595 46.0776 45.7521L41.5424 48.9609C41.3823 49.0814 41.2845 49.2706 41.2845 49.4771C41.2845 49.6836 41.3912 49.8728 41.5513 49.9933L43.8278 51.5848L43.8011 51.5934C43.152 51.7912 42.485 51.8945 41.8092 51.9031C38.7946 51.9031 37.1228 49.5459 36.6159 47.5329C35.9401 44.8574 36.8382 38.629 36.8382 38.5688C36.8827 38.3193 36.7582 38.0612 36.5359 37.9408C35.2909 37.2096 34.0637 36.8224 32.8988 36.8224C31.556 36.7966 30.2577 37.3128 29.2706 38.2591C29.1639 38.3537 29.1106 38.4914 29.1017 38.6376C29.0661 39.0248 28.3725 48.0232 32.4275 52.5741C33.9303 54.2516 35.8778 55.1033 38.2521 55.1033C38.6879 55.1033 39.1236 55.0861 39.5594 55.0259C41.8537 54.7162 44.1124 54.1484 46.2911 53.3225L50.0437 55.9291L41.7203 61.7188C41.5513 61.8392 41.4535 62.0371 41.4535 62.2522C41.4535 62.4586 41.5513 62.6565 41.7292 62.7683L50.0704 68.7042L42.9652 73.7627L42.4228 72.3432C42.3339 72.1195 42.1293 71.9647 41.8892 71.9475C41.8892 71.9475 41.8774 71.9446 41.8537 71.9389C41.6313 71.9389 41.4268 72.0679 41.3112 72.2744L37.9498 78.6748C37.8431 78.8813 37.8609 79.1308 37.9854 79.3286C38.101 79.5007 38.2877 79.6039 38.4922 79.5953H38.5812L45.5708 78.5372C45.802 78.5028 45.9976 78.3307 46.0598 78.0984C46.131 77.8662 46.0599 77.6081 45.8909 77.436L44.7349 76.3865L52.8004 70.6484L60.8838 76.4037L59.7278 77.4532C59.5499 77.6253 59.4788 77.8834 59.5499 78.1156C59.6211 78.3479 59.8167 78.52 60.0568 78.5544L67.0464 79.6125H67.1353C67.4732 79.6125 67.7489 79.3372 67.7489 78.9931C67.7489 78.8899 67.7222 78.7867 67.6778 78.692L64.2986 72.2916C64.1919 72.0851 63.9873 71.9647 63.765 71.9561C63.7472 71.9561 63.7383 71.9647 63.7383 71.9647C63.4982 71.9819 63.2848 72.1367 63.1959 72.3604L62.6357 73.7627L55.5305 68.6956L63.8806 62.7597C64.0496 62.6393 64.1474 62.45 64.1563 62.2436C64.1563 62.0285 64.0496 61.8306 63.8806 61.7102L55.5572 55.9206L59.3276 53.3139C61.4974 54.1398 63.7472 54.7162 66.0415 55.0173C66.4773 55.0775 66.913 55.1033 67.3487 55.0947C69.7142 55.0947 71.6794 54.243 73.1734 52.5655C77.2284 48.0146 76.5348 39.0161 76.4992 38.629C76.4814 38.4914 76.4192 38.3623 76.3303 38.2591V38.2505ZM52.8004 44.866L54.5878 46.1134C54.0276 46.4919 53.4318 46.8619 52.8004 47.2404C52.1869 46.8533 51.5999 46.4833 51.0219 46.1134L52.8004 44.866ZM46.3 49.4599L48.7721 47.7135C49.2523 48.0318 49.7592 48.3673 50.3016 48.7028C49.3323 49.2362 48.3719 49.7352 47.376 50.1911L46.3 49.4513V49.4599ZM59.1498 62.2522L52.8004 66.7686L46.4689 62.2522L52.8004 57.8304L59.1498 62.2522ZM52.8004 54.0021L49.7325 51.8428C50.8085 51.3267 51.8311 50.7761 52.8004 50.2341C53.7786 50.7761 54.8013 51.3267 55.8862 51.8428L52.8004 54.0021ZM58.2427 50.2083C57.2645 49.7524 56.2775 49.2534 55.3082 48.7201C55.8417 48.3759 56.3397 48.0404 56.8377 47.7307L59.3187 49.4771L58.2427 50.2169V50.2083Z" fill="#0C2742"/>
</svg>
