<svg width="102" height="102" viewBox="0 0 102 102" fill="none" xmlns="http://www.w3.org/2000/svg">
<path fill-rule="evenodd" clip-rule="evenodd" d="M79.6261 15.6924C83.0084 15.6924 86.6834 17.7378 86.6834 21.1925V83.4717C86.6834 89.3658 83.5693 94.4911 75.6449 94.4911H63.2158C57.1468 94.4911 52.5761 97.5506 52.5761 100.919C52.5761 97.7913 48.3604 94.696 42.2919 94.6957H29.5316C26.4767 94.6957 19.0605 93.5992 19.0046 83.6121V21.9486C19.0046 18.4938 21.126 15.6924 24.5083 15.6924H79.6261ZM27.1422 18.6297C24.0743 18.6297 22.1501 21.1714 22.1501 24.305V80.2344C22.1501 88.4151 23.3947 90.6486 31.6991 90.6486H43.2716C48.7763 90.6486 52.6004 93.0968 52.6004 95.9338C52.6004 92.8786 56.2164 90.6035 61.7211 90.6035H72.9954C82.1609 90.6035 83.5362 88.0264 83.5362 80.1078V23.6184C83.5357 20.4853 80.2036 18.6299 77.1361 18.6297H27.1422Z" fill="#0C2742"/>
<path d="M60.9467 90.6961C56.2097 91.0112 52.7562 93.0333 52.608 95.7506H52.5924C52.4324 92.9921 48.6576 90.6488 43.2716 90.6486L42.3255 90.6493V90.6024H60.9467V90.6961Z" fill="#0C2742"/>
<path d="M52.3184 88.8546H39.9396V84.7277H52.3184V88.8546Z" fill="#0C2742"/>
<path d="M66.7624 88.8546H54.3818V84.7277H66.7624V88.8546Z" fill="#0C2742"/>
<path d="M83.3149 84.7277C83.0617 86.5749 82.5348 87.9179 81.4734 88.8546H68.8241V84.7277H83.3149Z" fill="#0C2742"/>
<path d="M37.8761 88.8546H24.1431C23.1647 87.9326 22.6433 86.6002 22.3831 84.7277H37.8761V88.8546Z" fill="#0C2742"/>
<path d="M45.1762 82.7441H32.7973V78.6172H45.1762V82.7441Z" fill="#0C2742"/>
<path d="M59.6202 82.7441H47.2396V78.6172H59.6202V82.7441Z" fill="#0C2742"/>
<path d="M74.0624 82.7441H61.6836V78.6172H74.0624V82.7441Z" fill="#0C2742"/>
<path d="M83.5362 80.1078C83.5362 81.0616 83.5242 81.9393 83.4866 82.7441H76.1259V78.6172H83.5369L83.5362 80.1078Z" fill="#0C2742"/>
<path d="M30.7339 82.7441H22.2079C22.1693 81.9775 22.1501 81.1424 22.1501 80.2344L22.1507 78.6172H30.7339V82.7441Z" fill="#0C2742"/>
<path fill-rule="evenodd" clip-rule="evenodd" d="M61.5655 24.7403C65.6392 24.7403 68.9416 28.0426 68.9416 32.1163C68.9416 36.19 65.6392 39.4924 61.5655 39.4924C58.2243 39.4924 55.403 37.2704 54.4961 34.2238H40.491V39.4924H36.2761V34.2238H32.0612V30.0089H54.4961C55.403 26.9622 58.2243 24.7403 61.5655 24.7403ZM61.5655 28.6485C59.6498 28.6485 58.0977 30.2006 58.0977 32.1163C58.0977 34.032 59.6498 35.5841 61.5655 35.5841C63.4812 35.5841 65.0333 34.032 65.0333 32.1163C65.0333 30.2006 63.4812 28.6485 61.5655 28.6485Z" fill="#0C2742"/>
<path d="M34.8952 45.6565H66.669V52.0113H34.8952V45.6565Z" fill="#0C2742"/>
<path d="M43.3684 54.1296L43.3684 75.993H39.1319L39.1319 54.1296H43.3684Z" fill="#0C2742"/>
<path d="M49.7227 54.1296L49.7227 75.993H45.4862V54.1296H49.7227Z" fill="#0C2742"/>
<path d="M56.0781 54.1296V75.993H51.8416L51.8416 54.1296H56.0781Z" fill="#0C2742"/>
<path d="M62.433 54.1296V75.993H58.1965V54.1296H62.433Z" fill="#0C2742"/>
<path d="M37.0135 52.0113H64.5508V54.1295H37.0135V52.0113Z" fill="#0C2742"/>
</svg>
